<?xml version="1.0" encoding="utf-8" standalone="no"?>
<!DOCTYPE svg PUBLIC "-//W3C//DTD SVG 1.1//EN"
  "http://www.w3.org/Graphics/SVG/1.1/DTD/svg11.dtd">
<svg xmlns:xlink="http://www.w3.org/1999/xlink" width="460.8pt" height="259.2pt" viewBox="0 0 460.8 259.2" xmlns="http://www.w3.org/2000/svg" version="1.1">
 <metadata>
  <rdf:RDF xmlns:dc="http://purl.org/dc/elements/1.1/" xmlns:cc="http://creativecommons.org/ns#" xmlns:rdf="http://www.w3.org/1999/02/22-rdf-syntax-ns#">
   <cc:Work>
    <dc:type rdf:resource="http://purl.org/dc/dcmitype/StillImage"/>
    <dc:date>2026-08-06T22:47:30.111039</dc:date>
    <dc:format>image/svg+xml</dc:format>
    <dc:creator>
     <cc:Agent>
      <dc:title>Matplotlib v3.11.1, https://matplotlib.org/</dc:title>
     </cc:Agent>
    </dc:creator>
   </cc:Work>
  </rdf:RDF>
 </metadata>
 <defs>
  <style type="text/css">*{stroke-linejoin: round; stroke-linecap: butt}</style>
 </defs>
 <g id="figure_1">
  <g id="patch_1">
   <path d="M 0 259.2 
L 460.8 259.2 
L 460.8 0 
L 0 0 
z
" style="fill: #fcfcfb"/>
  </g>
  <g id="axes_1">
   <g id="patch_2">
    <path d="M 66.104396 214.32 
L 409.095604 214.32 
L 409.095604 11.88 
L 66.104396 11.88 
z
" style="fill: #fcfcfb"/>
   </g>
   <g id="FillBetweenPolyCollection_1">
    <defs>
     <path id="m5df8bedf4f" d="M 81.694906 -54.081818 
L 81.694906 -55.635176 
L 82.737749 -55.737283 
L 83.780593 -55.845348 
L 84.823436 -55.959665 
L 85.866279 -56.080538 
L 86.909123 -56.208282 
L 87.951966 -56.343225 
L 88.99481 -56.485704 
L 90.037653 -56.636067 
L 91.080497 -56.794677 
L 92.12334 -56.961905 
L 93.166184 -57.138135 
L 94.209027 -57.323764 
L 95.25187 -57.519197 
L 96.294714 -57.724855 
L 97.337557 -57.941168 
L 98.380401 -58.168579 
L 99.423244 -58.407541 
L 100.466088 -58.658519 
L 101.508931 -58.921991 
L 102.551775 -59.198444 
L 103.594618 -59.488377 
L 104.637461 -59.792298 
L 105.680305 -60.110727 
L 106.723148 -60.444193 
L 107.765992 -60.793235 
L 108.808835 -61.158402 
L 109.851679 -61.54025 
L 110.894522 -61.939345 
L 111.937365 -62.356258 
L 112.980209 -62.79157 
L 114.023052 -63.245868 
L 115.065896 -63.719742 
L 116.108739 -64.213791 
L 117.151583 -64.728615 
L 118.194426 -65.264819 
L 119.23727 -65.82301 
L 120.280113 -66.403797 
L 121.322956 -67.007789 
L 122.3658 -67.635595 
L 123.408643 -68.287821 
L 124.451487 -68.965074 
L 125.49433 -69.667952 
L 126.537174 -70.397053 
L 127.580017 -71.152964 
L 128.622861 -71.936268 
L 129.665704 -72.747536 
L 130.708547 -73.587331 
L 131.751391 -74.456202 
L 132.794234 -75.354686 
L 133.837078 -76.283303 
L 134.879921 -77.24256 
L 135.922765 -78.232941 
L 136.965608 -79.254915 
L 138.008451 -80.308926 
L 139.051295 -81.395396 
L 140.094138 -82.514722 
L 141.136982 -83.667276 
L 142.179825 -84.853399 
L 143.222669 -86.073403 
L 144.265512 -87.32757 
L 145.308356 -88.616144 
L 146.351199 -89.939339 
L 147.394042 -91.297328 
L 148.436886 -92.690247 
L 149.479729 -94.118191 
L 150.522573 -95.581212 
L 151.565416 -97.07932 
L 152.60826 -98.612479 
L 153.651103 -100.180605 
L 154.693947 -101.783566 
L 155.73679 -103.421179 
L 156.779633 -105.093213 
L 157.822477 -106.799379 
L 158.86532 -108.539339 
L 159.908164 -110.312695 
L 160.951007 -112.118997 
L 161.993851 -113.957734 
L 163.036694 -115.828337 
L 164.079537 -117.730181 
L 165.122381 -119.662576 
L 166.165224 -121.624774 
L 167.208068 -123.615967 
L 168.250911 -125.635281 
L 169.293755 -127.681783 
L 170.336598 -129.754479 
L 171.379442 -131.852309 
L 172.422285 -133.974153 
L 173.465128 -136.118829 
L 174.507972 -138.285094 
L 175.550815 -140.47164 
L 176.593659 -142.677104 
L 177.636502 -144.90006 
L 178.679346 -147.139024 
L 179.722189 -149.392453 
L 180.765033 -151.65875 
L 181.807876 -153.936261 
L 182.850719 -156.22328 
L 183.893563 -158.518048 
L 184.936406 -160.818757 
L 185.97925 -163.123549 
L 187.022093 -165.430524 
L 188.064937 -167.737735 
L 189.10778 -170.043196 
L 190.150623 -172.344881 
L 191.193467 -174.64073 
L 192.23631 -176.928649 
L 193.279154 -179.206514 
L 194.321997 -181.472174 
L 195.364841 -183.723455 
L 196.407684 -185.958164 
L 197.450528 -188.174088 
L 198.493371 -190.369002 
L 199.536214 -192.540673 
L 200.579058 -194.686859 
L 201.621901 -196.805319 
L 202.664745 -198.89381 
L 203.707588 -200.950097 
L 204.750432 -202.971953 
L 205.793275 -204.957164 
L 206.836119 -206.903536 
L 207.878962 -208.808893 
L 208.921805 -210.671086 
L 209.964649 -212.487994 
L 211.007492 -214.257532 
L 212.050336 -215.97765 
L 213.093179 -217.646339 
L 214.136023 -219.261636 
L 215.178866 -220.821628 
L 216.221709 -222.324452 
L 217.264553 -223.768305 
L 218.307396 -225.151441 
L 219.35024 -226.472178 
L 220.393083 -227.728902 
L 221.435927 -228.920069 
L 222.47877 -230.044208 
L 223.521614 -231.099925 
L 224.564457 -232.085903 
L 225.6073 -233.000911 
L 226.650144 -233.8438 
L 227.692987 -234.613508 
L 228.735831 -235.309062 
L 229.778674 -235.929582 
L 230.821518 -236.47428 
L 231.864361 -236.942462 
L 232.907205 -237.333532 
L 233.950048 -237.646989 
L 234.992891 -237.882435 
L 236.035735 -238.039566 
L 237.078578 -238.118182 
L 238.121422 -238.118182 
L 239.164265 -238.039566 
L 240.207109 -237.882435 
L 241.249952 -237.646989 
L 242.292795 -237.333532 
L 243.335639 -236.942462 
L 244.378482 -236.47428 
L 245.421326 -235.929582 
L 246.464169 -235.309062 
L 247.507013 -234.613508 
L 248.549856 -233.8438 
L 249.5927 -233.000911 
L 250.635543 -232.085903 
L 251.678386 -231.099925 
L 252.72123 -230.044208 
L 253.764073 -228.920069 
L 254.806917 -227.728902 
L 255.84976 -226.472178 
L 256.892604 -225.151441 
L 257.935447 -223.768305 
L 258.978291 -222.324452 
L 260.021134 -220.821628 
L 261.063977 -219.261636 
L 262.106821 -217.646339 
L 263.149664 -215.97765 
L 264.192508 -214.257532 
L 265.235351 -212.487994 
L 266.278195 -210.671086 
L 267.321038 -208.808893 
L 268.363881 -206.903536 
L 269.406725 -204.957164 
L 270.449568 -202.971953 
L 271.492412 -200.950097 
L 272.535255 -198.89381 
L 273.578099 -196.805319 
L 274.620942 -194.686859 
L 275.663786 -192.540673 
L 276.706629 -190.369002 
L 277.749472 -188.174088 
L 278.792316 -185.958164 
L 279.835159 -183.723455 
L 280.878003 -181.472174 
L 281.920846 -179.206514 
L 282.96369 -176.928649 
L 284.006533 -174.64073 
L 285.049377 -172.344881 
L 286.09222 -170.043196 
L 287.135063 -167.737735 
L 288.177907 -165.430524 
L 289.22075 -163.123549 
L 290.263594 -160.818757 
L 291.306437 -158.518048 
L 292.349281 -156.22328 
L 293.392124 -153.936261 
L 294.434967 -151.65875 
L 295.477811 -149.392453 
L 296.520654 -147.139024 
L 297.563498 -144.90006 
L 298.606341 -142.677104 
L 299.649185 -140.47164 
L 300.692028 -138.285094 
L 301.734872 -136.118829 
L 302.777715 -133.974153 
L 303.820558 -131.852309 
L 304.863402 -129.754479 
L 305.906245 -127.681783 
L 306.949089 -125.635281 
L 307.991932 -123.615967 
L 309.034776 -121.624774 
L 310.077619 -119.662576 
L 311.120463 -117.730181 
L 312.163306 -115.828337 
L 313.206149 -113.957734 
L 314.248993 -112.118997 
L 315.291836 -110.312695 
L 316.33468 -108.539339 
L 317.377523 -106.799379 
L 318.420367 -105.093213 
L 319.46321 -103.421179 
L 320.506053 -101.783566 
L 321.548897 -100.180605 
L 322.59174 -98.612479 
L 323.634584 -97.07932 
L 324.677427 -95.581212 
L 325.720271 -94.118191 
L 326.763114 -92.690247 
L 327.805958 -91.297328 
L 328.848801 -89.939339 
L 329.891644 -88.616144 
L 330.934488 -87.32757 
L 331.977331 -86.073403 
L 333.020175 -84.853399 
L 334.063018 -83.667276 
L 335.105862 -82.514722 
L 336.148705 -81.395396 
L 337.191549 -80.308926 
L 338.234392 -79.254915 
L 339.277235 -78.232941 
L 340.320079 -77.24256 
L 341.362922 -76.283303 
L 342.405766 -75.354686 
L 343.448609 -74.456202 
L 344.491453 -73.587331 
L 345.534296 -72.747536 
L 346.577139 -71.936268 
L 347.619983 -71.152964 
L 348.662826 -70.397053 
L 349.70567 -69.667952 
L 350.748513 -68.965074 
L 351.791357 -68.287821 
L 352.8342 -67.635595 
L 353.877044 -67.007789 
L 354.919887 -66.403797 
L 355.96273 -65.82301 
L 357.005574 -65.264819 
L 358.048417 -64.728615 
L 359.091261 -64.213791 
L 360.134104 -63.719742 
L 361.176948 -63.245868 
L 362.219791 -62.79157 
L 363.262635 -62.356258 
L 364.305478 -61.939345 
L 365.348321 -61.54025 
L 366.391165 -61.158402 
L 367.434008 -60.793235 
L 368.476852 -60.444193 
L 369.519695 -60.110727 
L 370.562539 -59.792298 
L 371.605382 -59.488377 
L 372.648225 -59.198444 
L 373.691069 -58.921991 
L 374.733912 -58.658519 
L 375.776756 -58.407541 
L 376.819599 -58.168579 
L 377.862443 -57.941168 
L 378.905286 -57.724855 
L 379.94813 -57.519197 
L 380.990973 -57.323764 
L 382.033816 -57.138135 
L 383.07666 -56.961905 
L 384.119503 -56.794677 
L 385.162347 -56.636067 
L 386.20519 -56.485704 
L 387.248034 -56.343225 
L 388.290877 -56.208282 
L 389.333721 -56.080538 
L 390.376564 -55.959665 
L 391.419407 -55.845348 
L 392.462251 -55.737283 
L 393.505094 -55.635176 
L 393.505094 -54.081818 
L 393.505094 -54.081818 
L 392.462251 -54.081818 
L 391.419407 -54.081818 
L 390.376564 -54.081818 
L 389.333721 -54.081818 
L 388.290877 -54.081818 
L 387.248034 -54.081818 
L 386.20519 -54.081818 
L 385.162347 -54.081818 
L 384.119503 -54.081818 
L 383.07666 -54.081818 
L 382.033816 -54.081818 
L 380.990973 -54.081818 
L 379.94813 -54.081818 
L 378.905286 -54.081818 
L 377.862443 -54.081818 
L 376.819599 -54.081818 
L 375.776756 -54.081818 
L 374.733912 -54.081818 
L 373.691069 -54.081818 
L 372.648225 -54.081818 
L 371.605382 -54.081818 
L 370.562539 -54.081818 
L 369.519695 -54.081818 
L 368.476852 -54.081818 
L 367.434008 -54.081818 
L 366.391165 -54.081818 
L 365.348321 -54.081818 
L 364.305478 -54.081818 
L 363.262635 -54.081818 
L 362.219791 -54.081818 
L 361.176948 -54.081818 
L 360.134104 -54.081818 
L 359.091261 -54.081818 
L 358.048417 -54.081818 
L 357.005574 -54.081818 
L 355.96273 -54.081818 
L 354.919887 -54.081818 
L 353.877044 -54.081818 
L 352.8342 -54.081818 
L 351.791357 -54.081818 
L 350.748513 -54.081818 
L 349.70567 -54.081818 
L 348.662826 -54.081818 
L 347.619983 -54.081818 
L 346.577139 -54.081818 
L 345.534296 -54.081818 
L 344.491453 -54.081818 
L 343.448609 -54.081818 
L 342.405766 -54.081818 
L 341.362922 -54.081818 
L 340.320079 -54.081818 
L 339.277235 -54.081818 
L 338.234392 -54.081818 
L 337.191549 -54.081818 
L 336.148705 -54.081818 
L 335.105862 -54.081818 
L 334.063018 -54.081818 
L 333.020175 -54.081818 
L 331.977331 -54.081818 
L 330.934488 -54.081818 
L 329.891644 -54.081818 
L 328.848801 -54.081818 
L 327.805958 -54.081818 
L 326.763114 -54.081818 
L 325.720271 -54.081818 
L 324.677427 -54.081818 
L 323.634584 -54.081818 
L 322.59174 -54.081818 
L 321.548897 -54.081818 
L 320.506053 -54.081818 
L 319.46321 -54.081818 
L 318.420367 -54.081818 
L 317.377523 -54.081818 
L 316.33468 -54.081818 
L 315.291836 -54.081818 
L 314.248993 -54.081818 
L 313.206149 -54.081818 
L 312.163306 -54.081818 
L 311.120463 -54.081818 
L 310.077619 -54.081818 
L 309.034776 -54.081818 
L 307.991932 -54.081818 
L 306.949089 -54.081818 
L 305.906245 -54.081818 
L 304.863402 -54.081818 
L 303.820558 -54.081818 
L 302.777715 -54.081818 
L 301.734872 -54.081818 
L 300.692028 -54.081818 
L 299.649185 -54.081818 
L 298.606341 -54.081818 
L 297.563498 -54.081818 
L 296.520654 -54.081818 
L 295.477811 -54.081818 
L 294.434967 -54.081818 
L 293.392124 -54.081818 
L 292.349281 -54.081818 
L 291.306437 -54.081818 
L 290.263594 -54.081818 
L 289.22075 -54.081818 
L 288.177907 -54.081818 
L 287.135063 -54.081818 
L 286.09222 -54.081818 
L 285.049377 -54.081818 
L 284.006533 -54.081818 
L 282.96369 -54.081818 
L 281.920846 -54.081818 
L 280.878003 -54.081818 
L 279.835159 -54.081818 
L 278.792316 -54.081818 
L 277.749472 -54.081818 
L 276.706629 -54.081818 
L 275.663786 -54.081818 
L 274.620942 -54.081818 
L 273.578099 -54.081818 
L 272.535255 -54.081818 
L 271.492412 -54.081818 
L 270.449568 -54.081818 
L 269.406725 -54.081818 
L 268.363881 -54.081818 
L 267.321038 -54.081818 
L 266.278195 -54.081818 
L 265.235351 -54.081818 
L 264.192508 -54.081818 
L 263.149664 -54.081818 
L 262.106821 -54.081818 
L 261.063977 -54.081818 
L 260.021134 -54.081818 
L 258.978291 -54.081818 
L 257.935447 -54.081818 
L 256.892604 -54.081818 
L 255.84976 -54.081818 
L 254.806917 -54.081818 
L 253.764073 -54.081818 
L 252.72123 -54.081818 
L 251.678386 -54.081818 
L 250.635543 -54.081818 
L 249.5927 -54.081818 
L 248.549856 -54.081818 
L 247.507013 -54.081818 
L 246.464169 -54.081818 
L 245.421326 -54.081818 
L 244.378482 -54.081818 
L 243.335639 -54.081818 
L 242.292795 -54.081818 
L 241.249952 -54.081818 
L 240.207109 -54.081818 
L 239.164265 -54.081818 
L 238.121422 -54.081818 
L 237.078578 -54.081818 
L 236.035735 -54.081818 
L 234.992891 -54.081818 
L 233.950048 -54.081818 
L 232.907205 -54.081818 
L 231.864361 -54.081818 
L 230.821518 -54.081818 
L 229.778674 -54.081818 
L 228.735831 -54.081818 
L 227.692987 -54.081818 
L 226.650144 -54.081818 
L 225.6073 -54.081818 
L 224.564457 -54.081818 
L 223.521614 -54.081818 
L 222.47877 -54.081818 
L 221.435927 -54.081818 
L 220.393083 -54.081818 
L 219.35024 -54.081818 
L 218.307396 -54.081818 
L 217.264553 -54.081818 
L 216.221709 -54.081818 
L 215.178866 -54.081818 
L 214.136023 -54.081818 
L 213.093179 -54.081818 
L 212.050336 -54.081818 
L 211.007492 -54.081818 
L 209.964649 -54.081818 
L 208.921805 -54.081818 
L 207.878962 -54.081818 
L 206.836119 -54.081818 
L 205.793275 -54.081818 
L 204.750432 -54.081818 
L 203.707588 -54.081818 
L 202.664745 -54.081818 
L 201.621901 -54.081818 
L 200.579058 -54.081818 
L 199.536214 -54.081818 
L 198.493371 -54.081818 
L 197.450528 -54.081818 
L 196.407684 -54.081818 
L 195.364841 -54.081818 
L 194.321997 -54.081818 
L 193.279154 -54.081818 
L 192.23631 -54.081818 
L 191.193467 -54.081818 
L 190.150623 -54.081818 
L 189.10778 -54.081818 
L 188.064937 -54.081818 
L 187.022093 -54.081818 
L 185.97925 -54.081818 
L 184.936406 -54.081818 
L 183.893563 -54.081818 
L 182.850719 -54.081818 
L 181.807876 -54.081818 
L 180.765033 -54.081818 
L 179.722189 -54.081818 
L 178.679346 -54.081818 
L 177.636502 -54.081818 
L 176.593659 -54.081818 
L 175.550815 -54.081818 
L 174.507972 -54.081818 
L 173.465128 -54.081818 
L 172.422285 -54.081818 
L 171.379442 -54.081818 
L 170.336598 -54.081818 
L 169.293755 -54.081818 
L 168.250911 -54.081818 
L 167.208068 -54.081818 
L 166.165224 -54.081818 
L 165.122381 -54.081818 
L 164.079537 -54.081818 
L 163.036694 -54.081818 
L 161.993851 -54.081818 
L 160.951007 -54.081818 
L 159.908164 -54.081818 
L 158.86532 -54.081818 
L 157.822477 -54.081818 
L 156.779633 -54.081818 
L 155.73679 -54.081818 
L 154.693947 -54.081818 
L 153.651103 -54.081818 
L 152.60826 -54.081818 
L 151.565416 -54.081818 
L 150.522573 -54.081818 
L 149.479729 -54.081818 
L 148.436886 -54.081818 
L 147.394042 -54.081818 
L 146.351199 -54.081818 
L 145.308356 -54.081818 
L 144.265512 -54.081818 
L 143.222669 -54.081818 
L 142.179825 -54.081818 
L 141.136982 -54.081818 
L 140.094138 -54.081818 
L 139.051295 -54.081818 
L 138.008451 -54.081818 
L 136.965608 -54.081818 
L 135.922765 -54.081818 
L 134.879921 -54.081818 
L 133.837078 -54.081818 
L 132.794234 -54.081818 
L 131.751391 -54.081818 
L 130.708547 -54.081818 
L 129.665704 -54.081818 
L 128.622861 -54.081818 
L 127.580017 -54.081818 
L 126.537174 -54.081818 
L 125.49433 -54.081818 
L 124.451487 -54.081818 
L 123.408643 -54.081818 
L 122.3658 -54.081818 
L 121.322956 -54.081818 
L 120.280113 -54.081818 
L 119.23727 -54.081818 
L 118.194426 -54.081818 
L 117.151583 -54.081818 
L 116.108739 -54.081818 
L 115.065896 -54.081818 
L 114.023052 -54.081818 
L 112.980209 -54.081818 
L 111.937365 -54.081818 
L 110.894522 -54.081818 
L 109.851679 -54.081818 
L 108.808835 -54.081818 
L 107.765992 -54.081818 
L 106.723148 -54.081818 
L 105.680305 -54.081818 
L 104.637461 -54.081818 
L 103.594618 -54.081818 
L 102.551775 -54.081818 
L 101.508931 -54.081818 
L 100.466088 -54.081818 
L 99.423244 -54.081818 
L 98.380401 -54.081818 
L 97.337557 -54.081818 
L 96.294714 -54.081818 
L 95.25187 -54.081818 
L 94.209027 -54.081818 
L 93.166184 -54.081818 
L 92.12334 -54.081818 
L 91.080497 -54.081818 
L 90.037653 -54.081818 
L 88.99481 -54.081818 
L 87.951966 -54.081818 
L 86.909123 -54.081818 
L 85.866279 -54.081818 
L 84.823436 -54.081818 
L 83.780593 -54.081818 
L 82.737749 -54.081818 
L 81.694906 -54.081818 
z
" style="stroke: #2a78d6; stroke-opacity: 0.12"/>
    </defs>
    <g clip-path="url(#pe0ebc18ab9)">
     <use xlink:href="#m5df8bedf4f" x="0" y="259.2" style="fill: #2a78d6; fill-opacity: 0.12; stroke: #2a78d6; stroke-opacity: 0.12"/>
    </g>
   </g>
   <g id="matplotlib.axis_1">
    <g id="xtick_1">
     <g id="line2d_1">
      <path d="M 86.24721 214.32 
L 86.24721 11.88 
" clip-path="url(#pe0ebc18ab9)" style="fill: none; stroke: #e1e0d9; stroke-width: 0.8; stroke-linecap: square"/>
     </g>
     <g id="line2d_2">
      <defs>
       <path id="mb358e64eaa" d="M 0 0 
L 0 3.5 
" style="stroke: #898781; stroke-width: 0.8"/>
      </defs>
      <g>
       <use xlink:href="#mb358e64eaa" x="86.24721" y="214.32" style="fill: #898781; stroke: #898781; stroke-width: 0.8"/>
      </g>
     </g>
     <g id="text_1">
      <!-- 140 -->
      <g style="fill: #898781" transform="translate(75.749085 229.677422) scale(0.11 -0.11)">
       <defs>
        <path id="DejaVuSans-14" d="M 794 531 
L 1825 531 
L 1825 4091 
L 703 3866 
L 703 4441 
L 1819 4666 
L 2450 4666 
L 2450 531 
L 3481 531 
L 3481 0 
L 794 0 
L 794 531 
z
" transform="scale(0.015625)"/>
        <path id="DejaVuSans-17" d="M 2419 4116 
L 825 1625 
L 2419 1625 
L 2419 4116 
z
M 2253 4666 
L 3047 4666 
L 3047 1625 
L 3713 1625 
L 3713 1100 
L 3047 1100 
L 3047 0 
L 2419 0 
L 2419 1100 
L 313 1100 
L 313 1709 
L 2253 4666 
z
" transform="scale(0.015625)"/>
        <path id="DejaVuSans-13" d="M 2034 4250 
Q 1547 4250 1301 3770 
Q 1056 3291 1056 2328 
Q 1056 1369 1301 889 
Q 1547 409 2034 409 
Q 2525 409 2770 889 
Q 3016 1369 3016 2328 
Q 3016 3291 2770 3770 
Q 2525 4250 2034 4250 
z
M 2034 4750 
Q 2819 4750 3233 4129 
Q 3647 3509 3647 2328 
Q 3647 1150 3233 529 
Q 2819 -91 2034 -91 
Q 1250 -91 836 529 
Q 422 1150 422 2328 
Q 422 3509 836 4129 
Q 1250 4750 2034 4750 
z
" transform="scale(0.015625)"/>
       </defs>
       <use xlink:href="#DejaVuSans-14"/>
       <use xlink:href="#DejaVuSans-17" transform="translate(63.625 0)"/>
       <use xlink:href="#DejaVuSans-13" transform="translate(127.25 0)"/>
      </g>
     </g>
    </g>
    <g id="xtick_2">
     <g id="line2d_3">
      <path d="M 136.69814 214.32 
L 136.69814 11.88 
" clip-path="url(#pe0ebc18ab9)" style="fill: none; stroke: #e1e0d9; stroke-width: 0.8; stroke-linecap: square"/>
     </g>
     <g id="line2d_4">
      <g>
       <use xlink:href="#mb358e64eaa" x="136.69814" y="214.32" style="fill: #898781; stroke: #898781; stroke-width: 0.8"/>
      </g>
     </g>
     <g id="text_2">
      <!-- 150 -->
      <g style="fill: #898781" transform="translate(126.200015 229.677422) scale(0.11 -0.11)">
       <defs>
        <path id="DejaVuSans-18" d="M 691 4666 
L 3169 4666 
L 3169 4134 
L 1269 4134 
L 1269 2991 
Q 1406 3038 1543 3061 
Q 1681 3084 1819 3084 
Q 2600 3084 3056 2656 
Q 3513 2228 3513 1497 
Q 3513 744 3044 326 
Q 2575 -91 1722 -91 
Q 1428 -91 1123 -41 
Q 819 9 494 109 
L 494 744 
Q 775 591 1075 516 
Q 1375 441 1709 441 
Q 2250 441 2565 725 
Q 2881 1009 2881 1497 
Q 2881 1984 2565 2268 
Q 2250 2553 1709 2553 
Q 1456 2553 1204 2497 
Q 953 2441 691 2322 
L 691 4666 
z
" transform="scale(0.015625)"/>
       </defs>
       <use xlink:href="#DejaVuSans-14"/>
       <use xlink:href="#DejaVuSans-18" transform="translate(63.625 0)"/>
       <use xlink:href="#DejaVuSans-13" transform="translate(127.25 0)"/>
      </g>
     </g>
    </g>
    <g id="xtick_3">
     <g id="line2d_5">
      <path d="M 187.14907 214.32 
L 187.14907 11.88 
" clip-path="url(#pe0ebc18ab9)" style="fill: none; stroke: #e1e0d9; stroke-width: 0.8; stroke-linecap: square"/>
     </g>
     <g id="line2d_6">
      <g>
       <use xlink:href="#mb358e64eaa" x="187.14907" y="214.32" style="fill: #898781; stroke: #898781; stroke-width: 0.8"/>
      </g>
     </g>
     <g id="text_3">
      <!-- 160 -->
      <g style="fill: #898781" transform="translate(176.650945 229.677422) scale(0.11 -0.11)">
       <defs>
        <path id="DejaVuSans-19" d="M 2113 2584 
Q 1688 2584 1439 2293 
Q 1191 2003 1191 1497 
Q 1191 994 1439 701 
Q 1688 409 2113 409 
Q 2538 409 2786 701 
Q 3034 994 3034 1497 
Q 3034 2003 2786 2293 
Q 2538 2584 2113 2584 
z
M 3366 4563 
L 3366 3988 
Q 3128 4100 2886 4159 
Q 2644 4219 2406 4219 
Q 1781 4219 1451 3797 
Q 1122 3375 1075 2522 
Q 1259 2794 1537 2939 
Q 1816 3084 2150 3084 
Q 2853 3084 3261 2657 
Q 3669 2231 3669 1497 
Q 3669 778 3244 343 
Q 2819 -91 2113 -91 
Q 1303 -91 875 529 
Q 447 1150 447 2328 
Q 447 3434 972 4092 
Q 1497 4750 2381 4750 
Q 2619 4750 2861 4703 
Q 3103 4656 3366 4563 
z
" transform="scale(0.015625)"/>
       </defs>
       <use xlink:href="#DejaVuSans-14"/>
       <use xlink:href="#DejaVuSans-19" transform="translate(63.625 0)"/>
       <use xlink:href="#DejaVuSans-13" transform="translate(127.25 0)"/>
      </g>
     </g>
    </g>
    <g id="xtick_4">
     <g id="line2d_7">
      <path d="M 237.6 214.32 
L 237.6 11.88 
" clip-path="url(#pe0ebc18ab9)" style="fill: none; stroke: #e1e0d9; stroke-width: 0.8; stroke-linecap: square"/>
     </g>
     <g id="line2d_8">
      <g>
       <use xlink:href="#mb358e64eaa" x="237.6" y="214.32" style="fill: #898781; stroke: #898781; stroke-width: 0.8"/>
      </g>
     </g>
     <g id="text_4">
      <!-- 170 -->
      <g style="fill: #898781" transform="translate(227.101875 229.677422) scale(0.11 -0.11)">
       <defs>
        <path id="DejaVuSans-1a" d="M 525 4666 
L 3525 4666 
L 3525 4397 
L 1831 0 
L 1172 0 
L 2766 4134 
L 525 4134 
L 525 4666 
z
" transform="scale(0.015625)"/>
       </defs>
       <use xlink:href="#DejaVuSans-14"/>
       <use xlink:href="#DejaVuSans-1a" transform="translate(63.625 0)"/>
       <use xlink:href="#DejaVuSans-13" transform="translate(127.25 0)"/>
      </g>
     </g>
    </g>
    <g id="xtick_5">
     <g id="line2d_9">
      <path d="M 288.05093 214.32 
L 288.05093 11.88 
" clip-path="url(#pe0ebc18ab9)" style="fill: none; stroke: #e1e0d9; stroke-width: 0.8; stroke-linecap: square"/>
     </g>
     <g id="line2d_10">
      <g>
       <use xlink:href="#mb358e64eaa" x="288.05093" y="214.32" style="fill: #898781; stroke: #898781; stroke-width: 0.8"/>
      </g>
     </g>
     <g id="text_5">
      <!-- 180 -->
      <g style="fill: #898781" transform="translate(277.552805 229.677422) scale(0.11 -0.11)">
       <defs>
        <path id="DejaVuSans-1b" d="M 2034 2216 
Q 1584 2216 1326 1975 
Q 1069 1734 1069 1313 
Q 1069 891 1326 650 
Q 1584 409 2034 409 
Q 2484 409 2743 651 
Q 3003 894 3003 1313 
Q 3003 1734 2745 1975 
Q 2488 2216 2034 2216 
z
M 1403 2484 
Q 997 2584 770 2862 
Q 544 3141 544 3541 
Q 544 4100 942 4425 
Q 1341 4750 2034 4750 
Q 2731 4750 3128 4425 
Q 3525 4100 3525 3541 
Q 3525 3141 3298 2862 
Q 3072 2584 2669 2484 
Q 3125 2378 3379 2068 
Q 3634 1759 3634 1313 
Q 3634 634 3220 271 
Q 2806 -91 2034 -91 
Q 1263 -91 848 271 
Q 434 634 434 1313 
Q 434 1759 690 2068 
Q 947 2378 1403 2484 
z
M 1172 3481 
Q 1172 3119 1398 2916 
Q 1625 2713 2034 2713 
Q 2441 2713 2670 2916 
Q 2900 3119 2900 3481 
Q 2900 3844 2670 4047 
Q 2441 4250 2034 4250 
Q 1625 4250 1398 4047 
Q 1172 3844 1172 3481 
z
" transform="scale(0.015625)"/>
       </defs>
       <use xlink:href="#DejaVuSans-14"/>
       <use xlink:href="#DejaVuSans-1b" transform="translate(63.625 0)"/>
       <use xlink:href="#DejaVuSans-13" transform="translate(127.25 0)"/>
      </g>
     </g>
    </g>
    <g id="xtick_6">
     <g id="line2d_11">
      <path d="M 338.50186 214.32 
L 338.50186 11.88 
" clip-path="url(#pe0ebc18ab9)" style="fill: none; stroke: #e1e0d9; stroke-width: 0.8; stroke-linecap: square"/>
     </g>
     <g id="line2d_12">
      <g>
       <use xlink:href="#mb358e64eaa" x="338.50186" y="214.32" style="fill: #898781; stroke: #898781; stroke-width: 0.8"/>
      </g>
     </g>
     <g id="text_6">
      <!-- 190 -->
      <g style="fill: #898781" transform="translate(328.003735 229.677422) scale(0.11 -0.11)">
       <defs>
        <path id="DejaVuSans-1c" d="M 703 97 
L 703 672 
Q 941 559 1184 500 
Q 1428 441 1663 441 
Q 2288 441 2617 861 
Q 2947 1281 2994 2138 
Q 2813 1869 2534 1725 
Q 2256 1581 1919 1581 
Q 1219 1581 811 2004 
Q 403 2428 403 3163 
Q 403 3881 828 4315 
Q 1253 4750 1959 4750 
Q 2769 4750 3195 4129 
Q 3622 3509 3622 2328 
Q 3622 1225 3098 567 
Q 2575 -91 1691 -91 
Q 1453 -91 1209 -44 
Q 966 3 703 97 
z
M 1959 2075 
Q 2384 2075 2632 2365 
Q 2881 2656 2881 3163 
Q 2881 3666 2632 3958 
Q 2384 4250 1959 4250 
Q 1534 4250 1286 3958 
Q 1038 3666 1038 3163 
Q 1038 2656 1286 2365 
Q 1534 2075 1959 2075 
z
" transform="scale(0.015625)"/>
       </defs>
       <use xlink:href="#DejaVuSans-14"/>
       <use xlink:href="#DejaVuSans-1c" transform="translate(63.625 0)"/>
       <use xlink:href="#DejaVuSans-13" transform="translate(127.25 0)"/>
      </g>
     </g>
    </g>
    <g id="xtick_7">
     <g id="line2d_13">
      <path d="M 388.95279 214.32 
L 388.95279 11.88 
" clip-path="url(#pe0ebc18ab9)" style="fill: none; stroke: #e1e0d9; stroke-width: 0.8; stroke-linecap: square"/>
     </g>
     <g id="line2d_14">
      <g>
       <use xlink:href="#mb358e64eaa" x="388.95279" y="214.32" style="fill: #898781; stroke: #898781; stroke-width: 0.8"/>
      </g>
     </g>
     <g id="text_7">
      <!-- 200 -->
      <g style="fill: #898781" transform="translate(378.454665 229.677422) scale(0.11 -0.11)">
       <defs>
        <path id="DejaVuSans-15" d="M 1228 531 
L 3431 531 
L 3431 0 
L 469 0 
L 469 531 
Q 828 903 1448 1529 
Q 2069 2156 2228 2338 
Q 2531 2678 2651 2914 
Q 2772 3150 2772 3378 
Q 2772 3750 2511 3984 
Q 2250 4219 1831 4219 
Q 1534 4219 1204 4116 
Q 875 4013 500 3803 
L 500 4441 
Q 881 4594 1212 4672 
Q 1544 4750 1819 4750 
Q 2544 4750 2975 4387 
Q 3406 4025 3406 3419 
Q 3406 3131 3298 2873 
Q 3191 2616 2906 2266 
Q 2828 2175 2409 1742 
Q 1991 1309 1228 531 
z
" transform="scale(0.015625)"/>
       </defs>
       <use xlink:href="#DejaVuSans-15"/>
       <use xlink:href="#DejaVuSans-13" transform="translate(63.625 0)"/>
       <use xlink:href="#DejaVuSans-13" transform="translate(127.25 0)"/>
      </g>
     </g>
    </g>
    <g id="text_8">
     <!-- x -->
     <g style="fill: #0b0b0b" transform="translate(234.344687 244.677422) scale(0.11 -0.11)">
      <defs>
       <path id="DejaVuSans-5b" d="M 3513 3500 
L 2247 1797 
L 3578 0 
L 2900 0 
L 1881 1375 
L 863 0 
L 184 0 
L 1544 1831 
L 300 3500 
L 978 3500 
L 1906 2253 
L 2834 3500 
L 3513 3500 
z
" transform="scale(0.015625)"/>
      </defs>
      <use xlink:href="#DejaVuSans-5b"/>
     </g>
    </g>
   </g>
   <g id="matplotlib.axis_2">
    <g id="ytick_1">
     <g id="line2d_15">
      <path d="M 66.104396 205.118182 
L 409.095604 205.118182 
" clip-path="url(#pe0ebc18ab9)" style="fill: none; stroke: #e1e0d9; stroke-width: 0.8; stroke-linecap: square"/>
     </g>
     <g id="line2d_16">
      <defs>
       <path id="m87073cbacd" d="M 0 0 
L -3.5 0 
" style="stroke: #898781; stroke-width: 0.8"/>
      </defs>
      <g>
       <use xlink:href="#m87073cbacd" x="66.104396" y="205.118182" style="fill: #898781; stroke: #898781; stroke-width: 0.8"/>
      </g>
     </g>
     <g id="text_9">
      <!-- 0.000 -->
      <g style="fill: #898781" transform="translate(27.613459 209.296893) scale(0.11 -0.11)">
       <defs>
        <path id="DejaVuSans-11" d="M 684 794 
L 1344 794 
L 1344 0 
L 684 0 
L 684 794 
z
" transform="scale(0.015625)"/>
       </defs>
       <use xlink:href="#DejaVuSans-13"/>
       <use xlink:href="#DejaVuSans-11" transform="translate(63.625 0)"/>
       <use xlink:href="#DejaVuSans-13" transform="translate(95.40625 0)"/>
       <use xlink:href="#DejaVuSans-13" transform="translate(159.03125 0)"/>
       <use xlink:href="#DejaVuSans-13" transform="translate(222.65625 0)"/>
      </g>
     </g>
    </g>
    <g id="ytick_2">
     <g id="line2d_17">
      <path d="M 66.104396 182.051412 
L 409.095604 182.051412 
" clip-path="url(#pe0ebc18ab9)" style="fill: none; stroke: #e1e0d9; stroke-width: 0.8; stroke-linecap: square"/>
     </g>
     <g id="line2d_18">
      <g>
       <use xlink:href="#m87073cbacd" x="66.104396" y="182.051412" style="fill: #898781; stroke: #898781; stroke-width: 0.8"/>
      </g>
     </g>
     <g id="text_10">
      <!-- 0.005 -->
      <g style="fill: #898781" transform="translate(27.613459 186.230123) scale(0.11 -0.11)">
       <use xlink:href="#DejaVuSans-13"/>
       <use xlink:href="#DejaVuSans-11" transform="translate(63.625 0)"/>
       <use xlink:href="#DejaVuSans-13" transform="translate(95.40625 0)"/>
       <use xlink:href="#DejaVuSans-13" transform="translate(159.03125 0)"/>
       <use xlink:href="#DejaVuSans-18" transform="translate(222.65625 0)"/>
      </g>
     </g>
    </g>
    <g id="ytick_3">
     <g id="line2d_19">
      <path d="M 66.104396 158.984643 
L 409.095604 158.984643 
" clip-path="url(#pe0ebc18ab9)" style="fill: none; stroke: #e1e0d9; stroke-width: 0.8; stroke-linecap: square"/>
     </g>
     <g id="line2d_20">
      <g>
       <use xlink:href="#m87073cbacd" x="66.104396" y="158.984643" style="fill: #898781; stroke: #898781; stroke-width: 0.8"/>
      </g>
     </g>
     <g id="text_11">
      <!-- 0.010 -->
      <g style="fill: #898781" transform="translate(27.613459 163.163354) scale(0.11 -0.11)">
       <use xlink:href="#DejaVuSans-13"/>
       <use xlink:href="#DejaVuSans-11" transform="translate(63.625 0)"/>
       <use xlink:href="#DejaVuSans-13" transform="translate(95.40625 0)"/>
       <use xlink:href="#DejaVuSans-14" transform="translate(159.03125 0)"/>
       <use xlink:href="#DejaVuSans-13" transform="translate(222.65625 0)"/>
      </g>
     </g>
    </g>
    <g id="ytick_4">
     <g id="line2d_21">
      <path d="M 66.104396 135.917873 
L 409.095604 135.917873 
" clip-path="url(#pe0ebc18ab9)" style="fill: none; stroke: #e1e0d9; stroke-width: 0.8; stroke-linecap: square"/>
     </g>
     <g id="line2d_22">
      <g>
       <use xlink:href="#m87073cbacd" x="66.104396" y="135.917873" style="fill: #898781; stroke: #898781; stroke-width: 0.8"/>
      </g>
     </g>
     <g id="text_12">
      <!-- 0.015 -->
      <g style="fill: #898781" transform="translate(27.613459 140.096584) scale(0.11 -0.11)">
       <use xlink:href="#DejaVuSans-13"/>
       <use xlink:href="#DejaVuSans-11" transform="translate(63.625 0)"/>
       <use xlink:href="#DejaVuSans-13" transform="translate(95.40625 0)"/>
       <use xlink:href="#DejaVuSans-14" transform="translate(159.03125 0)"/>
       <use xlink:href="#DejaVuSans-18" transform="translate(222.65625 0)"/>
      </g>
     </g>
    </g>
    <g id="ytick_5">
     <g id="line2d_23">
      <path d="M 66.104396 112.851104 
L 409.095604 112.851104 
" clip-path="url(#pe0ebc18ab9)" style="fill: none; stroke: #e1e0d9; stroke-width: 0.8; stroke-linecap: square"/>
     </g>
     <g id="line2d_24">
      <g>
       <use xlink:href="#m87073cbacd" x="66.104396" y="112.851104" style="fill: #898781; stroke: #898781; stroke-width: 0.8"/>
      </g>
     </g>
     <g id="text_13">
      <!-- 0.020 -->
      <g style="fill: #898781" transform="translate(27.613459 117.029815) scale(0.11 -0.11)">
       <use xlink:href="#DejaVuSans-13"/>
       <use xlink:href="#DejaVuSans-11" transform="translate(63.625 0)"/>
       <use xlink:href="#DejaVuSans-13" transform="translate(95.40625 0)"/>
       <use xlink:href="#DejaVuSans-15" transform="translate(159.03125 0)"/>
       <use xlink:href="#DejaVuSans-13" transform="translate(222.65625 0)"/>
      </g>
     </g>
    </g>
    <g id="ytick_6">
     <g id="line2d_25">
      <path d="M 66.104396 89.784334 
L 409.095604 89.784334 
" clip-path="url(#pe0ebc18ab9)" style="fill: none; stroke: #e1e0d9; stroke-width: 0.8; stroke-linecap: square"/>
     </g>
     <g id="line2d_26">
      <g>
       <use xlink:href="#m87073cbacd" x="66.104396" y="89.784334" style="fill: #898781; stroke: #898781; stroke-width: 0.8"/>
      </g>
     </g>
     <g id="text_14">
      <!-- 0.025 -->
      <g style="fill: #898781" transform="translate(27.613459 93.963045) scale(0.11 -0.11)">
       <use xlink:href="#DejaVuSans-13"/>
       <use xlink:href="#DejaVuSans-11" transform="translate(63.625 0)"/>
       <use xlink:href="#DejaVuSans-13" transform="translate(95.40625 0)"/>
       <use xlink:href="#DejaVuSans-15" transform="translate(159.03125 0)"/>
       <use xlink:href="#DejaVuSans-18" transform="translate(222.65625 0)"/>
      </g>
     </g>
    </g>
    <g id="ytick_7">
     <g id="line2d_27">
      <path d="M 66.104396 66.717564 
L 409.095604 66.717564 
" clip-path="url(#pe0ebc18ab9)" style="fill: none; stroke: #e1e0d9; stroke-width: 0.8; stroke-linecap: square"/>
     </g>
     <g id="line2d_28">
      <g>
       <use xlink:href="#m87073cbacd" x="66.104396" y="66.717564" style="fill: #898781; stroke: #898781; stroke-width: 0.8"/>
      </g>
     </g>
     <g id="text_15">
      <!-- 0.030 -->
      <g style="fill: #898781" transform="translate(27.613459 70.896275) scale(0.11 -0.11)">
       <defs>
        <path id="DejaVuSans-16" d="M 2597 2516 
Q 3050 2419 3304 2112 
Q 3559 1806 3559 1356 
Q 3559 666 3084 287 
Q 2609 -91 1734 -91 
Q 1441 -91 1130 -33 
Q 819 25 488 141 
L 488 750 
Q 750 597 1062 519 
Q 1375 441 1716 441 
Q 2309 441 2620 675 
Q 2931 909 2931 1356 
Q 2931 1769 2642 2001 
Q 2353 2234 1838 2234 
L 1294 2234 
L 1294 2753 
L 1863 2753 
Q 2328 2753 2575 2939 
Q 2822 3125 2822 3475 
Q 2822 3834 2567 4026 
Q 2313 4219 1838 4219 
Q 1578 4219 1281 4162 
Q 984 4106 628 3988 
L 628 4550 
Q 988 4650 1302 4700 
Q 1616 4750 1894 4750 
Q 2613 4750 3031 4423 
Q 3450 4097 3450 3541 
Q 3450 3153 3228 2886 
Q 3006 2619 2597 2516 
z
" transform="scale(0.015625)"/>
       </defs>
       <use xlink:href="#DejaVuSans-13"/>
       <use xlink:href="#DejaVuSans-11" transform="translate(63.625 0)"/>
       <use xlink:href="#DejaVuSans-13" transform="translate(95.40625 0)"/>
       <use xlink:href="#DejaVuSans-16" transform="translate(159.03125 0)"/>
       <use xlink:href="#DejaVuSans-13" transform="translate(222.65625 0)"/>
      </g>
     </g>
    </g>
    <g id="ytick_8">
     <g id="line2d_29">
      <path d="M 66.104396 43.650795 
L 409.095604 43.650795 
" clip-path="url(#pe0ebc18ab9)" style="fill: none; stroke: #e1e0d9; stroke-width: 0.8; stroke-linecap: square"/>
     </g>
     <g id="line2d_30">
      <g>
       <use xlink:href="#m87073cbacd" x="66.104396" y="43.650795" style="fill: #898781; stroke: #898781; stroke-width: 0.8"/>
      </g>
     </g>
     <g id="text_16">
      <!-- 0.035 -->
      <g style="fill: #898781" transform="translate(27.613459 47.829506) scale(0.11 -0.11)">
       <use xlink:href="#DejaVuSans-13"/>
       <use xlink:href="#DejaVuSans-11" transform="translate(63.625 0)"/>
       <use xlink:href="#DejaVuSans-13" transform="translate(95.40625 0)"/>
       <use xlink:href="#DejaVuSans-16" transform="translate(159.03125 0)"/>
       <use xlink:href="#DejaVuSans-18" transform="translate(222.65625 0)"/>
      </g>
     </g>
    </g>
    <g id="ytick_9">
     <g id="line2d_31">
      <path d="M 66.104396 20.584025 
L 409.095604 20.584025 
" clip-path="url(#pe0ebc18ab9)" style="fill: none; stroke: #e1e0d9; stroke-width: 0.8; stroke-linecap: square"/>
     </g>
     <g id="line2d_32">
      <g>
       <use xlink:href="#m87073cbacd" x="66.104396" y="20.584025" style="fill: #898781; stroke: #898781; stroke-width: 0.8"/>
      </g>
     </g>
     <g id="text_17">
      <!-- 0.040 -->
      <g style="fill: #898781" transform="translate(27.613459 24.762736) scale(0.11 -0.11)">
       <use xlink:href="#DejaVuSans-13"/>
       <use xlink:href="#DejaVuSans-11" transform="translate(63.625 0)"/>
       <use xlink:href="#DejaVuSans-13" transform="translate(95.40625 0)"/>
       <use xlink:href="#DejaVuSans-17" transform="translate(159.03125 0)"/>
       <use xlink:href="#DejaVuSans-13" transform="translate(222.65625 0)"/>
      </g>
     </g>
    </g>
    <g id="text_18">
     <!-- density -->
     <g style="fill: #2a78d6" transform="translate(20.970881 133.266094) rotate(-90) scale(0.11 -0.11)">
      <defs>
       <path id="DejaVuSans-47" d="M 2906 2969 
L 2906 4863 
L 3481 4863 
L 3481 0 
L 2906 0 
L 2906 525 
Q 2725 213 2448 61 
Q 2172 -91 1784 -91 
Q 1150 -91 751 415 
Q 353 922 353 1747 
Q 353 2572 751 3078 
Q 1150 3584 1784 3584 
Q 2172 3584 2448 3432 
Q 2725 3281 2906 2969 
z
M 947 1747 
Q 947 1113 1208 752 
Q 1469 391 1925 391 
Q 2381 391 2643 752 
Q 2906 1113 2906 1747 
Q 2906 2381 2643 2742 
Q 2381 3103 1925 3103 
Q 1469 3103 1208 2742 
Q 947 2381 947 1747 
z
" transform="scale(0.015625)"/>
       <path id="DejaVuSans-48" d="M 3597 1894 
L 3597 1613 
L 953 1613 
Q 991 1019 1311 708 
Q 1631 397 2203 397 
Q 2534 397 2845 478 
Q 3156 559 3463 722 
L 3463 178 
Q 3153 47 2828 -22 
Q 2503 -91 2169 -91 
Q 1331 -91 842 396 
Q 353 884 353 1716 
Q 353 2575 817 3079 
Q 1281 3584 2069 3584 
Q 2775 3584 3186 3129 
Q 3597 2675 3597 1894 
z
M 3022 2063 
Q 3016 2534 2758 2815 
Q 2500 3097 2075 3097 
Q 1594 3097 1305 2825 
Q 1016 2553 972 2059 
L 3022 2063 
z
" transform="scale(0.015625)"/>
       <path id="DejaVuSans-51" d="M 3513 2113 
L 3513 0 
L 2938 0 
L 2938 2094 
Q 2938 2591 2744 2837 
Q 2550 3084 2163 3084 
Q 1697 3084 1428 2787 
Q 1159 2491 1159 1978 
L 1159 0 
L 581 0 
L 581 3500 
L 1159 3500 
L 1159 2956 
Q 1366 3272 1645 3428 
Q 1925 3584 2291 3584 
Q 2894 3584 3203 3211 
Q 3513 2838 3513 2113 
z
" transform="scale(0.015625)"/>
       <path id="DejaVuSans-56" d="M 2834 3397 
L 2834 2853 
Q 2591 2978 2328 3040 
Q 2066 3103 1784 3103 
Q 1356 3103 1142 2972 
Q 928 2841 928 2578 
Q 928 2378 1081 2264 
Q 1234 2150 1697 2047 
L 1894 2003 
Q 2506 1872 2764 1633 
Q 3022 1394 3022 966 
Q 3022 478 2636 193 
Q 2250 -91 1575 -91 
Q 1294 -91 989 -36 
Q 684 19 347 128 
L 347 722 
Q 666 556 975 473 
Q 1284 391 1588 391 
Q 1994 391 2212 530 
Q 2431 669 2431 922 
Q 2431 1156 2273 1281 
Q 2116 1406 1581 1522 
L 1381 1569 
Q 847 1681 609 1914 
Q 372 2147 372 2553 
Q 372 3047 722 3315 
Q 1072 3584 1716 3584 
Q 2034 3584 2315 3537 
Q 2597 3491 2834 3397 
z
" transform="scale(0.015625)"/>
       <path id="DejaVuSans-4c" d="M 603 3500 
L 1178 3500 
L 1178 0 
L 603 0 
L 603 3500 
z
M 603 4863 
L 1178 4863 
L 1178 4134 
L 603 4134 
L 603 4863 
z
" transform="scale(0.015625)"/>
       <path id="DejaVuSans-57" d="M 1172 4494 
L 1172 3500 
L 2356 3500 
L 2356 3053 
L 1172 3053 
L 1172 1153 
Q 1172 725 1289 603 
Q 1406 481 1766 481 
L 2356 481 
L 2356 0 
L 1766 0 
Q 1100 0 847 248 
Q 594 497 594 1153 
L 594 3053 
L 172 3053 
L 172 3500 
L 594 3500 
L 594 4494 
L 1172 4494 
z
" transform="scale(0.015625)"/>
       <path id="DejaVuSans-5c" d="M 2059 -325 
Q 1816 -950 1584 -1140 
Q 1353 -1331 966 -1331 
L 506 -1331 
L 506 -850 
L 844 -850 
Q 1081 -850 1212 -737 
Q 1344 -625 1503 -206 
L 1606 56 
L 191 3500 
L 800 3500 
L 1894 763 
L 2988 3500 
L 3597 3500 
L 2059 -325 
z
" transform="scale(0.015625)"/>
      </defs>
      <use xlink:href="#DejaVuSans-47"/>
      <use xlink:href="#DejaVuSans-48" transform="translate(63.484375 0)"/>
      <use xlink:href="#DejaVuSans-51" transform="translate(125.015625 0)"/>
      <use xlink:href="#DejaVuSans-56" transform="translate(188.390625 0)"/>
      <use xlink:href="#DejaVuSans-4c" transform="translate(240.484375 0)"/>
      <use xlink:href="#DejaVuSans-57" transform="translate(268.265625 0)"/>
      <use xlink:href="#DejaVuSans-5c" transform="translate(307.46875 0)"/>
     </g>
    </g>
   </g>
   <g id="line2d_33">
    <path d="M 81.694906 203.564824 
L 87.951966 202.856775 
L 93.166184 202.061865 
L 98.380401 201.031421 
L 102.551775 200.001556 
L 106.723148 198.755807 
L 110.894522 197.260655 
L 115.065896 195.480258 
L 118.194426 193.935181 
L 121.322956 192.192211 
L 124.451487 190.234926 
L 127.580017 188.047036 
L 130.708547 185.612669 
L 133.837078 182.916697 
L 136.965608 179.945085 
L 140.094138 176.685278 
L 143.222669 173.126597 
L 146.351199 169.260661 
L 149.479729 165.081809 
L 152.60826 160.587521 
L 155.73679 155.778821 
L 159.908164 148.887305 
L 164.079537 141.469819 
L 168.250911 133.564719 
L 172.422285 125.225847 
L 177.636502 114.29994 
L 184.936406 98.381243 
L 196.407684 73.241836 
L 201.621901 62.394681 
L 205.793275 54.242836 
L 208.921805 48.528914 
L 212.050336 43.22235 
L 215.178866 38.378372 
L 218.307396 34.048559 
L 220.393083 31.471098 
L 222.47877 29.155792 
L 224.564457 27.114097 
L 226.650144 25.3562 
L 228.735831 23.890938 
L 230.821518 22.72572 
L 232.907205 21.866468 
L 234.992891 21.317565 
L 237.078578 21.081818 
L 239.164265 21.160434 
L 241.249952 21.553011 
L 243.335639 22.257538 
L 245.421326 23.270418 
L 247.507013 24.586492 
L 249.5927 26.199089 
L 251.678386 28.100075 
L 253.764073 30.279931 
L 255.84976 32.727822 
L 257.935447 35.431695 
L 261.063977 39.938364 
L 264.192508 44.942468 
L 267.321038 50.391107 
L 270.449568 56.228047 
L 274.620942 64.513141 
L 279.835159 75.476545 
L 287.135063 91.462265 
L 297.563498 114.29994 
L 302.777715 125.225847 
L 307.991932 135.584033 
L 312.163306 143.371663 
L 316.33468 150.660661 
L 320.506053 157.416434 
L 323.634584 162.12068 
L 326.763114 166.509753 
L 329.891644 170.583856 
L 333.020175 174.346601 
L 336.148705 177.804604 
L 339.277235 180.967059 
L 342.405766 183.845314 
L 345.534296 186.452464 
L 348.662826 188.802947 
L 351.791357 190.912179 
L 354.919887 192.796203 
L 358.048417 194.471385 
L 362.219791 196.40843 
L 366.391165 198.041598 
L 370.562539 199.407702 
L 374.733912 200.541481 
L 378.905286 201.475145 
L 384.119503 202.405323 
L 389.333721 203.119462 
L 393.505094 203.564824 
L 393.505094 203.564824 
" clip-path="url(#pe0ebc18ab9)" style="fill: none; stroke: #2a78d6; stroke-width: 2; stroke-linecap: square"/>
   </g>
   <g id="patch_3">
    <path d="M 66.104396 214.32 
L 66.104396 11.88 
" style="fill: none; stroke: #e1e0d9; stroke-width: 0.8; stroke-linejoin: miter; stroke-linecap: square"/>
   </g>
   <g id="patch_4">
    <path d="M 66.104396 214.32 
L 409.095604 214.32 
" style="fill: none; stroke: #e1e0d9; stroke-width: 0.8; stroke-linejoin: miter; stroke-linecap: square"/>
   </g>
  </g>
  <g id="axes_2">
   <g id="matplotlib.axis_3">
    <g id="ytick_10">
     <g id="line2d_34">
      <defs>
       <path id="m0b33b14c09" d="M 0 0 
L 3.5 0 
" style="stroke: #898781; stroke-width: 0.8"/>
      </defs>
      <g>
       <use xlink:href="#m0b33b14c09" x="409.095604" y="214.32" style="fill: #898781; stroke: #898781; stroke-width: 0.8"/>
      </g>
     </g>
     <g id="text_19">
      <!-- 0.0 -->
      <g style="fill: #898781" transform="translate(416.095604 218.498711) scale(0.11 -0.11)">
       <use xlink:href="#DejaVuSans-13"/>
       <use xlink:href="#DejaVuSans-11" transform="translate(63.625 0)"/>
       <use xlink:href="#DejaVuSans-13" transform="translate(95.40625 0)"/>
      </g>
     </g>
    </g>
    <g id="ytick_11">
     <g id="line2d_35">
      <g>
       <use xlink:href="#m0b33b14c09" x="409.095604" y="175.76" style="fill: #898781; stroke: #898781; stroke-width: 0.8"/>
      </g>
     </g>
     <g id="text_20">
      <!-- 0.2 -->
      <g style="fill: #898781" transform="translate(416.095604 179.938711) scale(0.11 -0.11)">
       <use xlink:href="#DejaVuSans-13"/>
       <use xlink:href="#DejaVuSans-11" transform="translate(63.625 0)"/>
       <use xlink:href="#DejaVuSans-15" transform="translate(95.40625 0)"/>
      </g>
     </g>
    </g>
    <g id="ytick_12">
     <g id="line2d_36">
      <g>
       <use xlink:href="#m0b33b14c09" x="409.095604" y="137.2" style="fill: #898781; stroke: #898781; stroke-width: 0.8"/>
      </g>
     </g>
     <g id="text_21">
      <!-- 0.4 -->
      <g style="fill: #898781" transform="translate(416.095604 141.378711) scale(0.11 -0.11)">
       <use xlink:href="#DejaVuSans-13"/>
       <use xlink:href="#DejaVuSans-11" transform="translate(63.625 0)"/>
       <use xlink:href="#DejaVuSans-17" transform="translate(95.40625 0)"/>
      </g>
     </g>
    </g>
    <g id="ytick_13">
     <g id="line2d_37">
      <g>
       <use xlink:href="#m0b33b14c09" x="409.095604" y="98.64" style="fill: #898781; stroke: #898781; stroke-width: 0.8"/>
      </g>
     </g>
     <g id="text_22">
      <!-- 0.6 -->
      <g style="fill: #898781" transform="translate(416.095604 102.818711) scale(0.11 -0.11)">
       <use xlink:href="#DejaVuSans-13"/>
       <use xlink:href="#DejaVuSans-11" transform="translate(63.625 0)"/>
       <use xlink:href="#DejaVuSans-19" transform="translate(95.40625 0)"/>
      </g>
     </g>
    </g>
    <g id="ytick_14">
     <g id="line2d_38">
      <g>
       <use xlink:href="#m0b33b14c09" x="409.095604" y="60.08" style="fill: #898781; stroke: #898781; stroke-width: 0.8"/>
      </g>
     </g>
     <g id="text_23">
      <!-- 0.8 -->
      <g style="fill: #898781" transform="translate(416.095604 64.258711) scale(0.11 -0.11)">
       <use xlink:href="#DejaVuSans-13"/>
       <use xlink:href="#DejaVuSans-11" transform="translate(63.625 0)"/>
       <use xlink:href="#DejaVuSans-1b" transform="translate(95.40625 0)"/>
      </g>
     </g>
    </g>
    <g id="ytick_15">
     <g id="line2d_39">
      <g>
       <use xlink:href="#m0b33b14c09" x="409.095604" y="21.52" style="fill: #898781; stroke: #898781; stroke-width: 0.8"/>
      </g>
     </g>
     <g id="text_24">
      <!-- 1.0 -->
      <g style="fill: #898781" transform="translate(416.095604 25.698711) scale(0.11 -0.11)">
       <use xlink:href="#DejaVuSans-14"/>
       <use xlink:href="#DejaVuSans-11" transform="translate(63.625 0)"/>
       <use xlink:href="#DejaVuSans-13" transform="translate(95.40625 0)"/>
      </g>
     </g>
    </g>
    <g id="text_25">
     <!-- P(X ≤ x) -->
     <g style="fill: #eb6834" transform="translate(445.946463 135.835625) rotate(-90) scale(0.11 -0.11)">
      <defs>
       <path id="DejaVuSans-33" d="M 1259 4147 
L 1259 2394 
L 2053 2394 
Q 2494 2394 2734 2622 
Q 2975 2850 2975 3272 
Q 2975 3691 2734 3919 
Q 2494 4147 2053 4147 
L 1259 4147 
z
M 628 4666 
L 2053 4666 
Q 2838 4666 3239 4311 
Q 3641 3956 3641 3272 
Q 3641 2581 3239 2228 
Q 2838 1875 2053 1875 
L 1259 1875 
L 1259 0 
L 628 0 
L 628 4666 
z
" transform="scale(0.015625)"/>
       <path id="DejaVuSans-b" d="M 1984 4856 
Q 1566 4138 1362 3434 
Q 1159 2731 1159 2009 
Q 1159 1288 1364 580 
Q 1569 -128 1984 -844 
L 1484 -844 
Q 1016 -109 783 600 
Q 550 1309 550 2009 
Q 550 2706 781 3412 
Q 1013 4119 1484 4856 
L 1984 4856 
z
" transform="scale(0.015625)"/>
       <path id="DejaVuSans-3b" d="M 403 4666 
L 1081 4666 
L 2241 2931 
L 3406 4666 
L 4084 4666 
L 2584 2425 
L 4184 0 
L 3506 0 
L 2194 1984 
L 872 0 
L 191 0 
L 1856 2491 
L 403 4666 
z
" transform="scale(0.015625)"/>
       <path id="DejaVuSans-3" transform="scale(0.015625)"/>
       <path id="DejaVuSans-cee" d="M 4684 3175 
L 1684 2309 
L 4684 1453 
L 4684 897 
L 678 2047 
L 678 2578 
L 4684 3725 
L 4684 3175 
z
M 678 531 
L 4684 531 
L 4684 0 
L 678 0 
L 678 531 
z
" transform="scale(0.015625)"/>
       <path id="DejaVuSans-c" d="M 513 4856 
L 1013 4856 
Q 1481 4119 1714 3412 
Q 1947 2706 1947 2009 
Q 1947 1309 1714 600 
Q 1481 -109 1013 -844 
L 513 -844 
Q 928 -128 1133 580 
Q 1338 1288 1338 2009 
Q 1338 2731 1133 3434 
Q 928 4138 513 4856 
z
" transform="scale(0.015625)"/>
      </defs>
      <use xlink:href="#DejaVuSans-33"/>
      <use xlink:href="#DejaVuSans-b" transform="translate(60.296875 0)"/>
      <use xlink:href="#DejaVuSans-3b" transform="translate(99.3125 0)"/>
      <use xlink:href="#DejaVuSans-3" transform="translate(167.8125 0)"/>
      <use xlink:href="#DejaVuSans-cee" transform="translate(199.59375 0)"/>
      <use xlink:href="#DejaVuSans-3" transform="translate(283.390625 0)"/>
      <use xlink:href="#DejaVuSans-5b" transform="translate(315.171875 0)"/>
      <use xlink:href="#DejaVuSans-c" transform="translate(374.359375 0)"/>
     </g>
    </g>
   </g>
   <g id="line2d_40">
    <path d="M 81.694906 214.1272 
L 96.294714 213.82866 
L 106.723148 213.405863 
L 115.065896 212.859558 
L 122.3658 212.163865 
L 128.622861 211.353978 
L 134.879921 210.295647 
L 140.094138 209.184314 
L 145.308356 207.827512 
L 149.479729 206.540757 
L 153.651103 205.054208 
L 157.822477 203.348535 
L 161.993851 201.404767 
L 166.165224 199.204748 
L 170.336598 196.731653 
L 174.507972 193.970516 
L 178.679346 190.908778 
L 182.850719 187.536832 
L 187.022093 183.848535 
L 191.193467 179.841675 
L 195.364841 175.518379 
L 199.536214 170.885419 
L 203.707588 165.95442 
L 208.921805 159.397255 
L 214.136023 152.443684 
L 220.393083 143.653345 
L 227.692987 132.927442 
L 238.121422 117.125069 
L 249.5927 99.807008 
L 256.892604 89.208438 
L 262.106821 81.976341 
L 267.321038 75.098054 
L 272.535255 68.62571 
L 276.706629 63.767862 
L 280.878003 59.21142 
L 285.049377 54.966784 
L 289.22075 51.039541 
L 293.392124 47.430699 
L 297.563498 44.137025 
L 301.734872 41.151463 
L 305.906245 38.463617 
L 310.077619 36.060276 
L 314.248993 33.925958 
L 318.420367 32.043456 
L 322.59174 30.394364 
L 326.763114 28.95958 
L 331.977331 27.438 
L 337.191549 26.183693 
L 342.405766 25.160688 
L 348.662826 24.191004 
L 354.919887 23.452744 
L 362.219791 22.822057 
L 370.562539 22.329931 
L 380.990973 21.951922 
L 393.505094 21.7128 
L 393.505094 21.7128 
" clip-path="url(#pe0ebc18ab9)" style="fill: none; stroke: #eb6834; stroke-width: 1.6; stroke-linecap: square"/>
   </g>
   <g id="patch_5">
    <path d="M 66.104396 214.32 
L 66.104396 11.88 
" style="fill: none; stroke: #e1e0d9; stroke-width: 0.8; stroke-linejoin: miter; stroke-linecap: square"/>
   </g>
   <g id="patch_6">
    <path d="M 409.095604 214.32 
L 409.095604 11.88 
" style="fill: none; stroke: #e1e0d9; stroke-width: 0.8; stroke-linejoin: miter; stroke-linecap: square"/>
   </g>
   <g id="patch_7">
    <path d="M 66.104396 214.32 
L 409.095604 214.32 
" style="fill: none; stroke: #e1e0d9; stroke-width: 0.8; stroke-linejoin: miter; stroke-linecap: square"/>
   </g>
   <g id="patch_8">
    <path d="M 66.104396 11.88 
L 409.095604 11.88 
" style="fill: none; stroke: #e1e0d9; stroke-width: 0.8; stroke-linejoin: miter; stroke-linecap: square"/>
   </g>
  </g>
 </g>
 <defs>
  <clipPath id="pe0ebc18ab9">
   <rect x="66.104396" y="11.88" width="342.991207" height="202.44"/>
  </clipPath>
 </defs>
</svg>
