<?xml version="1.0" encoding="utf-8" standalone="no"?>
<!DOCTYPE svg PUBLIC "-//W3C//DTD SVG 1.1//EN"
  "http://www.w3.org/Graphics/SVG/1.1/DTD/svg11.dtd">
<svg xmlns:xlink="http://www.w3.org/1999/xlink" width="460.8pt" height="259.2pt" viewBox="0 0 460.8 259.2" xmlns="http://www.w3.org/2000/svg" version="1.1">
 <metadata>
  <rdf:RDF xmlns:dc="http://purl.org/dc/elements/1.1/" xmlns:cc="http://creativecommons.org/ns#" xmlns:rdf="http://www.w3.org/1999/02/22-rdf-syntax-ns#">
   <cc:Work>
    <dc:type rdf:resource="http://purl.org/dc/dcmitype/StillImage"/>
    <dc:date>2026-08-06T22:47:36.543875</dc:date>
    <dc:format>image/svg+xml</dc:format>
    <dc:creator>
     <cc:Agent>
      <dc:title>Matplotlib v3.11.1, https://matplotlib.org/</dc:title>
     </cc:Agent>
    </dc:creator>
   </cc:Work>
  </rdf:RDF>
 </metadata>
 <defs>
  <style type="text/css">*{stroke-linejoin: round; stroke-linecap: butt}</style>
 </defs>
 <g id="figure_1">
  <g id="patch_1">
   <path d="M 0 259.2 
L 460.8 259.2 
L 460.8 0 
L 0 0 
z
" style="fill: #fcfcfb"/>
  </g>
  <g id="axes_1">
   <g id="patch_2">
    <path d="M 51.704396 214.32 
L 409.095604 214.32 
L 409.095604 11.88 
L 51.704396 11.88 
z
" style="fill: #fcfcfb"/>
   </g>
   <g id="FillBetweenPolyCollection_1">
    <defs>
     <path id="md504dc25d9" d="M 67.949451 -54.081818 
L 67.949451 -82.999226 
L 69.036077 -103.421243 
L 70.122703 -120.292761 
L 71.209328 -134.83138 
L 72.295954 -147.592413 
L 73.38258 -158.903072 
L 74.469206 -168.983607 
L 75.555831 -177.994997 
L 76.642457 -186.061645 
L 77.729083 -193.283595 
L 78.815709 -199.743717 
L 79.902334 -205.512221 
L 80.98896 -210.649655 
L 82.075586 -215.20897 
L 83.162212 -219.237002 
L 84.248837 -222.775562 
L 85.335463 -225.862266 
L 86.422089 -228.531168 
L 87.508715 -230.813266 
L 88.59534 -232.736906 
L 89.681966 -234.32811 
L 90.768592 -235.610843 
L 91.855218 -236.607243 
L 92.941843 -237.337809 
L 94.028469 -237.821565 
L 95.115095 -238.076199 
L 96.201721 -238.118182 
L 97.288346 -237.962876 
L 98.374972 -237.624625 
L 99.461598 -237.116841 
L 100.548224 -236.45207 
L 101.634849 -235.642063 
L 102.721475 -234.697833 
L 103.808101 -233.629707 
L 104.894727 -232.447373 
L 105.981352 -231.159927 
L 107.067978 -229.775909 
L 108.154604 -228.303341 
L 109.241229 -226.74976 
L 110.327855 -225.12225 
L 111.414481 -223.427467 
L 112.501107 -221.671667 
L 113.587732 -219.86073 
L 114.674358 -218.000185 
L 115.760984 -216.095226 
L 116.84761 -214.150733 
L 117.934235 -212.171293 
L 119.020861 -210.161214 
L 120.107487 -208.124542 
L 121.194113 -206.065074 
L 122.280738 -203.986374 
L 123.367364 -201.891787 
L 124.45399 -199.784446 
L 125.540616 -197.667291 
L 126.627241 -195.543072 
L 127.713867 -193.414366 
L 128.800493 -191.283582 
L 129.887119 -189.152972 
L 130.973744 -187.024639 
L 132.06037 -184.900546 
L 133.146996 -182.782523 
L 134.233622 -180.672274 
L 135.320247 -178.571381 
L 136.406873 -176.481319 
L 137.493499 -174.403451 
L 138.580125 -172.339043 
L 139.66675 -170.289263 
L 140.753376 -168.255192 
L 141.840002 -166.237822 
L 142.926628 -164.238068 
L 144.013253 -162.256766 
L 145.099879 -160.294683 
L 146.186505 -158.352515 
L 147.273131 -156.430896 
L 148.359756 -154.530398 
L 149.446382 -152.651537 
L 150.533008 -150.794773 
L 151.619634 -148.960518 
L 152.706259 -147.149134 
L 153.792885 -145.360937 
L 154.879511 -143.596203 
L 155.966136 -141.855165 
L 157.052762 -140.138019 
L 158.139388 -138.444927 
L 159.226014 -136.776016 
L 160.312639 -135.131382 
L 161.399265 -133.511091 
L 162.485891 -131.915182 
L 163.572517 -130.343667 
L 164.659142 -128.796536 
L 165.745768 -127.273753 
L 166.832394 -125.775263 
L 167.91902 -124.30099 
L 169.005645 -122.850841 
L 170.092271 -121.424705 
L 171.178897 -120.022453 
L 172.265523 -118.643943 
L 173.352148 -117.28902 
L 174.438774 -115.957514 
L 175.5254 -114.649245 
L 176.612026 -113.36402 
L 177.698651 -112.101638 
L 178.785277 -110.861888 
L 179.871903 -109.64455 
L 180.958529 -108.449396 
L 182.045154 -107.276193 
L 183.13178 -106.1247 
L 184.218406 -104.99467 
L 185.305032 -103.885852 
L 186.391657 -102.79799 
L 187.478283 -101.730823 
L 188.564909 -100.684089 
L 189.651535 -99.657519 
L 190.73816 -98.650846 
L 191.824786 -97.663796 
L 192.911412 -96.696097 
L 193.998038 -95.747474 
L 195.084663 -94.817651 
L 196.171289 -93.906352 
L 197.257915 -93.013298 
L 198.344541 -92.138213 
L 199.431166 -91.28082 
L 200.517792 -90.440841 
L 201.604418 -89.618001 
L 202.691044 -88.812024 
L 203.777669 -88.022636 
L 204.864295 -87.249563 
L 205.950921 -86.492535 
L 207.037546 -85.75128 
L 208.124172 -85.02553 
L 209.210798 -84.315019 
L 210.297424 -83.619482 
L 211.384049 -82.938657 
L 212.470675 -82.272285 
L 213.557301 -81.620106 
L 214.643927 -80.981866 
L 215.730552 -80.357313 
L 216.817178 -79.746195 
L 217.903804 -79.148267 
L 218.99043 -78.563282 
L 220.077055 -77.991 
L 221.163681 -77.431181 
L 222.250307 -76.88359 
L 223.336933 -76.347993 
L 224.423558 -75.824161 
L 225.510184 -75.311866 
L 226.59681 -74.810886 
L 227.683436 -74.320998 
L 228.770061 -73.841985 
L 229.856687 -73.373633 
L 230.943313 -72.91573 
L 232.029939 -72.468068 
L 233.116564 -72.030442 
L 234.20319 -71.602649 
L 235.289816 -71.184491 
L 236.376442 -70.775772 
L 237.463067 -70.3763 
L 238.549693 -69.985884 
L 239.636319 -69.604339 
L 240.722945 -69.231481 
L 241.80957 -68.867129 
L 242.896196 -68.511107 
L 243.982822 -68.16324 
L 245.069448 -67.823357 
L 246.156073 -67.491289 
L 247.242699 -67.166872 
L 248.329325 -66.849943 
L 249.415951 -66.540343 
L 250.502576 -66.237914 
L 251.589202 -65.942504 
L 252.675828 -65.653961 
L 253.762454 -65.372137 
L 254.849079 -65.096886 
L 255.935705 -64.828067 
L 257.022331 -64.565538 
L 258.108956 -64.309163 
L 259.195582 -64.058807 
L 260.282208 -63.814337 
L 261.368834 -63.575625 
L 262.455459 -63.342543 
L 263.542085 -63.114966 
L 264.628711 -62.892772 
L 265.715337 -62.675842 
L 266.801962 -62.464058 
L 267.888588 -62.257305 
L 268.975214 -62.055471 
L 270.06184 -61.858444 
L 271.148465 -61.666117 
L 272.235091 -61.478383 
L 273.321717 -61.29514 
L 274.408343 -61.116284 
L 275.494968 -60.941717 
L 276.581594 -60.771341 
L 277.66822 -60.60506 
L 278.754846 -60.44278 
L 279.841471 -60.284411 
L 280.928097 -60.129862 
L 282.014723 -59.979046 
L 283.101349 -59.831876 
L 284.187974 -59.688269 
L 285.2746 -59.548142 
L 286.361226 -59.411415 
L 287.447852 -59.278009 
L 288.534477 -59.147846 
L 289.621103 -59.020852 
L 290.707729 -58.896951 
L 291.794355 -58.776073 
L 292.88098 -58.658146 
L 293.967606 -58.543102 
L 295.054232 -58.430872 
L 296.140858 -58.32139 
L 297.227483 -58.214593 
L 298.314109 -58.110416 
L 299.400735 -58.008797 
L 300.487361 -57.909677 
L 301.573986 -57.812996 
L 302.660612 -57.718696 
L 303.747238 -57.626721 
L 304.833864 -57.537015 
L 305.920489 -57.449525 
L 307.007115 -57.364197 
L 308.093741 -57.28098 
L 309.180366 -57.199824 
L 310.266992 -57.120679 
L 311.353618 -57.043497 
L 312.440244 -56.968231 
L 313.526869 -56.894834 
L 314.613495 -56.823263 
L 315.700121 -56.753473 
L 316.786747 -56.685421 
L 317.873372 -56.619065 
L 318.959998 -56.554364 
L 320.046624 -56.491278 
L 321.13325 -56.429768 
L 322.219875 -56.369795 
L 323.306501 -56.311323 
L 324.393127 -56.254316 
L 325.479753 -56.198736 
L 326.566378 -56.14455 
L 327.653004 -56.091724 
L 328.73963 -56.040224 
L 329.826256 -55.990018 
L 330.912881 -55.941074 
L 331.999507 -55.893362 
L 333.086133 -55.846852 
L 334.172759 -55.801513 
L 335.259384 -55.757317 
L 336.34601 -55.714236 
L 337.432636 -55.672243 
L 338.519262 -55.63131 
L 339.605887 -55.591413 
L 340.692513 -55.552524 
L 341.779139 -55.51462 
L 342.865765 -55.477675 
L 343.95239 -55.441667 
L 345.039016 -55.406572 
L 346.125642 -55.372367 
L 347.212268 -55.339031 
L 348.298893 -55.306541 
L 349.385519 -55.274877 
L 350.472145 -55.244019 
L 351.558771 -55.213946 
L 352.645396 -55.184638 
L 353.732022 -55.156077 
L 354.818648 -55.128244 
L 355.905273 -55.101121 
L 356.991899 -55.074689 
L 358.078525 -55.048933 
L 359.165151 -55.023835 
L 360.251776 -54.999378 
L 361.338402 -54.975546 
L 362.425028 -54.952325 
L 363.511654 -54.929697 
L 364.598279 -54.90765 
L 365.684905 -54.886167 
L 366.771531 -54.865235 
L 367.858157 -54.84484 
L 368.944782 -54.824968 
L 370.031408 -54.805607 
L 371.118034 -54.786743 
L 372.20466 -54.768364 
L 373.291285 -54.750457 
L 374.377911 -54.733011 
L 375.464537 -54.716014 
L 376.551163 -54.699455 
L 377.637788 -54.683323 
L 378.724414 -54.667606 
L 379.81104 -54.652294 
L 380.897666 -54.637378 
L 381.984291 -54.622846 
L 383.070917 -54.60869 
L 384.157543 -54.5949 
L 385.244169 -54.581465 
L 386.330794 -54.568378 
L 387.41742 -54.55563 
L 388.504046 -54.543212 
L 389.590672 -54.531115 
L 390.677297 -54.519331 
L 391.763923 -54.507853 
L 392.850549 -54.496672 
L 392.850549 -54.081818 
L 392.850549 -54.081818 
L 391.763923 -54.081818 
L 390.677297 -54.081818 
L 389.590672 -54.081818 
L 388.504046 -54.081818 
L 387.41742 -54.081818 
L 386.330794 -54.081818 
L 385.244169 -54.081818 
L 384.157543 -54.081818 
L 383.070917 -54.081818 
L 381.984291 -54.081818 
L 380.897666 -54.081818 
L 379.81104 -54.081818 
L 378.724414 -54.081818 
L 377.637788 -54.081818 
L 376.551163 -54.081818 
L 375.464537 -54.081818 
L 374.377911 -54.081818 
L 373.291285 -54.081818 
L 372.20466 -54.081818 
L 371.118034 -54.081818 
L 370.031408 -54.081818 
L 368.944782 -54.081818 
L 367.858157 -54.081818 
L 366.771531 -54.081818 
L 365.684905 -54.081818 
L 364.598279 -54.081818 
L 363.511654 -54.081818 
L 362.425028 -54.081818 
L 361.338402 -54.081818 
L 360.251776 -54.081818 
L 359.165151 -54.081818 
L 358.078525 -54.081818 
L 356.991899 -54.081818 
L 355.905273 -54.081818 
L 354.818648 -54.081818 
L 353.732022 -54.081818 
L 352.645396 -54.081818 
L 351.558771 -54.081818 
L 350.472145 -54.081818 
L 349.385519 -54.081818 
L 348.298893 -54.081818 
L 347.212268 -54.081818 
L 346.125642 -54.081818 
L 345.039016 -54.081818 
L 343.95239 -54.081818 
L 342.865765 -54.081818 
L 341.779139 -54.081818 
L 340.692513 -54.081818 
L 339.605887 -54.081818 
L 338.519262 -54.081818 
L 337.432636 -54.081818 
L 336.34601 -54.081818 
L 335.259384 -54.081818 
L 334.172759 -54.081818 
L 333.086133 -54.081818 
L 331.999507 -54.081818 
L 330.912881 -54.081818 
L 329.826256 -54.081818 
L 328.73963 -54.081818 
L 327.653004 -54.081818 
L 326.566378 -54.081818 
L 325.479753 -54.081818 
L 324.393127 -54.081818 
L 323.306501 -54.081818 
L 322.219875 -54.081818 
L 321.13325 -54.081818 
L 320.046624 -54.081818 
L 318.959998 -54.081818 
L 317.873372 -54.081818 
L 316.786747 -54.081818 
L 315.700121 -54.081818 
L 314.613495 -54.081818 
L 313.526869 -54.081818 
L 312.440244 -54.081818 
L 311.353618 -54.081818 
L 310.266992 -54.081818 
L 309.180366 -54.081818 
L 308.093741 -54.081818 
L 307.007115 -54.081818 
L 305.920489 -54.081818 
L 304.833864 -54.081818 
L 303.747238 -54.081818 
L 302.660612 -54.081818 
L 301.573986 -54.081818 
L 300.487361 -54.081818 
L 299.400735 -54.081818 
L 298.314109 -54.081818 
L 297.227483 -54.081818 
L 296.140858 -54.081818 
L 295.054232 -54.081818 
L 293.967606 -54.081818 
L 292.88098 -54.081818 
L 291.794355 -54.081818 
L 290.707729 -54.081818 
L 289.621103 -54.081818 
L 288.534477 -54.081818 
L 287.447852 -54.081818 
L 286.361226 -54.081818 
L 285.2746 -54.081818 
L 284.187974 -54.081818 
L 283.101349 -54.081818 
L 282.014723 -54.081818 
L 280.928097 -54.081818 
L 279.841471 -54.081818 
L 278.754846 -54.081818 
L 277.66822 -54.081818 
L 276.581594 -54.081818 
L 275.494968 -54.081818 
L 274.408343 -54.081818 
L 273.321717 -54.081818 
L 272.235091 -54.081818 
L 271.148465 -54.081818 
L 270.06184 -54.081818 
L 268.975214 -54.081818 
L 267.888588 -54.081818 
L 266.801962 -54.081818 
L 265.715337 -54.081818 
L 264.628711 -54.081818 
L 263.542085 -54.081818 
L 262.455459 -54.081818 
L 261.368834 -54.081818 
L 260.282208 -54.081818 
L 259.195582 -54.081818 
L 258.108956 -54.081818 
L 257.022331 -54.081818 
L 255.935705 -54.081818 
L 254.849079 -54.081818 
L 253.762454 -54.081818 
L 252.675828 -54.081818 
L 251.589202 -54.081818 
L 250.502576 -54.081818 
L 249.415951 -54.081818 
L 248.329325 -54.081818 
L 247.242699 -54.081818 
L 246.156073 -54.081818 
L 245.069448 -54.081818 
L 243.982822 -54.081818 
L 242.896196 -54.081818 
L 241.80957 -54.081818 
L 240.722945 -54.081818 
L 239.636319 -54.081818 
L 238.549693 -54.081818 
L 237.463067 -54.081818 
L 236.376442 -54.081818 
L 235.289816 -54.081818 
L 234.20319 -54.081818 
L 233.116564 -54.081818 
L 232.029939 -54.081818 
L 230.943313 -54.081818 
L 229.856687 -54.081818 
L 228.770061 -54.081818 
L 227.683436 -54.081818 
L 226.59681 -54.081818 
L 225.510184 -54.081818 
L 224.423558 -54.081818 
L 223.336933 -54.081818 
L 222.250307 -54.081818 
L 221.163681 -54.081818 
L 220.077055 -54.081818 
L 218.99043 -54.081818 
L 217.903804 -54.081818 
L 216.817178 -54.081818 
L 215.730552 -54.081818 
L 214.643927 -54.081818 
L 213.557301 -54.081818 
L 212.470675 -54.081818 
L 211.384049 -54.081818 
L 210.297424 -54.081818 
L 209.210798 -54.081818 
L 208.124172 -54.081818 
L 207.037546 -54.081818 
L 205.950921 -54.081818 
L 204.864295 -54.081818 
L 203.777669 -54.081818 
L 202.691044 -54.081818 
L 201.604418 -54.081818 
L 200.517792 -54.081818 
L 199.431166 -54.081818 
L 198.344541 -54.081818 
L 197.257915 -54.081818 
L 196.171289 -54.081818 
L 195.084663 -54.081818 
L 193.998038 -54.081818 
L 192.911412 -54.081818 
L 191.824786 -54.081818 
L 190.73816 -54.081818 
L 189.651535 -54.081818 
L 188.564909 -54.081818 
L 187.478283 -54.081818 
L 186.391657 -54.081818 
L 185.305032 -54.081818 
L 184.218406 -54.081818 
L 183.13178 -54.081818 
L 182.045154 -54.081818 
L 180.958529 -54.081818 
L 179.871903 -54.081818 
L 178.785277 -54.081818 
L 177.698651 -54.081818 
L 176.612026 -54.081818 
L 175.5254 -54.081818 
L 174.438774 -54.081818 
L 173.352148 -54.081818 
L 172.265523 -54.081818 
L 171.178897 -54.081818 
L 170.092271 -54.081818 
L 169.005645 -54.081818 
L 167.91902 -54.081818 
L 166.832394 -54.081818 
L 165.745768 -54.081818 
L 164.659142 -54.081818 
L 163.572517 -54.081818 
L 162.485891 -54.081818 
L 161.399265 -54.081818 
L 160.312639 -54.081818 
L 159.226014 -54.081818 
L 158.139388 -54.081818 
L 157.052762 -54.081818 
L 155.966136 -54.081818 
L 154.879511 -54.081818 
L 153.792885 -54.081818 
L 152.706259 -54.081818 
L 151.619634 -54.081818 
L 150.533008 -54.081818 
L 149.446382 -54.081818 
L 148.359756 -54.081818 
L 147.273131 -54.081818 
L 146.186505 -54.081818 
L 145.099879 -54.081818 
L 144.013253 -54.081818 
L 142.926628 -54.081818 
L 141.840002 -54.081818 
L 140.753376 -54.081818 
L 139.66675 -54.081818 
L 138.580125 -54.081818 
L 137.493499 -54.081818 
L 136.406873 -54.081818 
L 135.320247 -54.081818 
L 134.233622 -54.081818 
L 133.146996 -54.081818 
L 132.06037 -54.081818 
L 130.973744 -54.081818 
L 129.887119 -54.081818 
L 128.800493 -54.081818 
L 127.713867 -54.081818 
L 126.627241 -54.081818 
L 125.540616 -54.081818 
L 124.45399 -54.081818 
L 123.367364 -54.081818 
L 122.280738 -54.081818 
L 121.194113 -54.081818 
L 120.107487 -54.081818 
L 119.020861 -54.081818 
L 117.934235 -54.081818 
L 116.84761 -54.081818 
L 115.760984 -54.081818 
L 114.674358 -54.081818 
L 113.587732 -54.081818 
L 112.501107 -54.081818 
L 111.414481 -54.081818 
L 110.327855 -54.081818 
L 109.241229 -54.081818 
L 108.154604 -54.081818 
L 107.067978 -54.081818 
L 105.981352 -54.081818 
L 104.894727 -54.081818 
L 103.808101 -54.081818 
L 102.721475 -54.081818 
L 101.634849 -54.081818 
L 100.548224 -54.081818 
L 99.461598 -54.081818 
L 98.374972 -54.081818 
L 97.288346 -54.081818 
L 96.201721 -54.081818 
L 95.115095 -54.081818 
L 94.028469 -54.081818 
L 92.941843 -54.081818 
L 91.855218 -54.081818 
L 90.768592 -54.081818 
L 89.681966 -54.081818 
L 88.59534 -54.081818 
L 87.508715 -54.081818 
L 86.422089 -54.081818 
L 85.335463 -54.081818 
L 84.248837 -54.081818 
L 83.162212 -54.081818 
L 82.075586 -54.081818 
L 80.98896 -54.081818 
L 79.902334 -54.081818 
L 78.815709 -54.081818 
L 77.729083 -54.081818 
L 76.642457 -54.081818 
L 75.555831 -54.081818 
L 74.469206 -54.081818 
L 73.38258 -54.081818 
L 72.295954 -54.081818 
L 71.209328 -54.081818 
L 70.122703 -54.081818 
L 69.036077 -54.081818 
L 67.949451 -54.081818 
z
" style="stroke: #2a78d6; stroke-opacity: 0.12"/>
    </defs>
    <g clip-path="url(#pa83a0ec216)">
     <use xlink:href="#md504dc25d9" x="0" y="259.2" style="fill: #2a78d6; fill-opacity: 0.12; stroke: #2a78d6; stroke-opacity: 0.12"/>
    </g>
   </g>
   <g id="matplotlib.axis_1">
    <g id="xtick_1">
     <g id="line2d_1">
      <path d="M 83.471638 214.32 
L 83.471638 11.88 
" clip-path="url(#pa83a0ec216)" style="fill: none; stroke: #e1e0d9; stroke-width: 0.8; stroke-linecap: square"/>
     </g>
     <g id="line2d_2">
      <defs>
       <path id="m729a66498f" d="M 0 0 
L 0 3.5 
" style="stroke: #898781; stroke-width: 0.8"/>
      </defs>
      <g>
       <use xlink:href="#m729a66498f" x="83.471638" y="214.32" style="fill: #898781; stroke: #898781; stroke-width: 0.8"/>
      </g>
     </g>
     <g id="text_1">
      <!-- −1 -->
      <g style="fill: #898781" transform="translate(75.363435 229.677422) scale(0.11 -0.11)">
       <defs>
        <path id="DejaVuSans-c9c" d="M 678 2272 
L 4684 2272 
L 4684 1741 
L 678 1741 
L 678 2272 
z
" transform="scale(0.015625)"/>
        <path id="DejaVuSans-14" d="M 794 531 
L 1825 531 
L 1825 4091 
L 703 3866 
L 703 4441 
L 1819 4666 
L 2450 4666 
L 2450 531 
L 3481 531 
L 3481 0 
L 794 0 
L 794 531 
z
" transform="scale(0.015625)"/>
       </defs>
       <use xlink:href="#DejaVuSans-c9c"/>
       <use xlink:href="#DejaVuSans-14" transform="translate(83.796875 0)"/>
      </g>
     </g>
    </g>
    <g id="xtick_2">
     <g id="line2d_3">
      <path d="M 133.103079 214.32 
L 133.103079 11.88 
" clip-path="url(#pa83a0ec216)" style="fill: none; stroke: #e1e0d9; stroke-width: 0.8; stroke-linecap: square"/>
     </g>
     <g id="line2d_4">
      <g>
       <use xlink:href="#m729a66498f" x="133.103079" y="214.32" style="fill: #898781; stroke: #898781; stroke-width: 0.8"/>
      </g>
     </g>
     <g id="text_2">
      <!-- 0 -->
      <g style="fill: #898781" transform="translate(129.603704 229.677422) scale(0.11 -0.11)">
       <defs>
        <path id="DejaVuSans-13" d="M 2034 4250 
Q 1547 4250 1301 3770 
Q 1056 3291 1056 2328 
Q 1056 1369 1301 889 
Q 1547 409 2034 409 
Q 2525 409 2770 889 
Q 3016 1369 3016 2328 
Q 3016 3291 2770 3770 
Q 2525 4250 2034 4250 
z
M 2034 4750 
Q 2819 4750 3233 4129 
Q 3647 3509 3647 2328 
Q 3647 1150 3233 529 
Q 2819 -91 2034 -91 
Q 1250 -91 836 529 
Q 422 1150 422 2328 
Q 422 3509 836 4129 
Q 1250 4750 2034 4750 
z
" transform="scale(0.015625)"/>
       </defs>
       <use xlink:href="#DejaVuSans-13"/>
      </g>
     </g>
    </g>
    <g id="xtick_3">
     <g id="line2d_5">
      <path d="M 182.73452 214.32 
L 182.73452 11.88 
" clip-path="url(#pa83a0ec216)" style="fill: none; stroke: #e1e0d9; stroke-width: 0.8; stroke-linecap: square"/>
     </g>
     <g id="line2d_6">
      <g>
       <use xlink:href="#m729a66498f" x="182.73452" y="214.32" style="fill: #898781; stroke: #898781; stroke-width: 0.8"/>
      </g>
     </g>
     <g id="text_3">
      <!-- 1 -->
      <g style="fill: #898781" transform="translate(179.235145 229.677422) scale(0.11 -0.11)">
       <use xlink:href="#DejaVuSans-14"/>
      </g>
     </g>
    </g>
    <g id="xtick_4">
     <g id="line2d_7">
      <path d="M 232.365961 214.32 
L 232.365961 11.88 
" clip-path="url(#pa83a0ec216)" style="fill: none; stroke: #e1e0d9; stroke-width: 0.8; stroke-linecap: square"/>
     </g>
     <g id="line2d_8">
      <g>
       <use xlink:href="#m729a66498f" x="232.365961" y="214.32" style="fill: #898781; stroke: #898781; stroke-width: 0.8"/>
      </g>
     </g>
     <g id="text_4">
      <!-- 2 -->
      <g style="fill: #898781" transform="translate(228.866586 229.677422) scale(0.11 -0.11)">
       <defs>
        <path id="DejaVuSans-15" d="M 1228 531 
L 3431 531 
L 3431 0 
L 469 0 
L 469 531 
Q 828 903 1448 1529 
Q 2069 2156 2228 2338 
Q 2531 2678 2651 2914 
Q 2772 3150 2772 3378 
Q 2772 3750 2511 3984 
Q 2250 4219 1831 4219 
Q 1534 4219 1204 4116 
Q 875 4013 500 3803 
L 500 4441 
Q 881 4594 1212 4672 
Q 1544 4750 1819 4750 
Q 2544 4750 2975 4387 
Q 3406 4025 3406 3419 
Q 3406 3131 3298 2873 
Q 3191 2616 2906 2266 
Q 2828 2175 2409 1742 
Q 1991 1309 1228 531 
z
" transform="scale(0.015625)"/>
       </defs>
       <use xlink:href="#DejaVuSans-15"/>
      </g>
     </g>
    </g>
    <g id="xtick_5">
     <g id="line2d_9">
      <path d="M 281.997401 214.32 
L 281.997401 11.88 
" clip-path="url(#pa83a0ec216)" style="fill: none; stroke: #e1e0d9; stroke-width: 0.8; stroke-linecap: square"/>
     </g>
     <g id="line2d_10">
      <g>
       <use xlink:href="#m729a66498f" x="281.997401" y="214.32" style="fill: #898781; stroke: #898781; stroke-width: 0.8"/>
      </g>
     </g>
     <g id="text_5">
      <!-- 3 -->
      <g style="fill: #898781" transform="translate(278.498026 229.677422) scale(0.11 -0.11)">
       <defs>
        <path id="DejaVuSans-16" d="M 2597 2516 
Q 3050 2419 3304 2112 
Q 3559 1806 3559 1356 
Q 3559 666 3084 287 
Q 2609 -91 1734 -91 
Q 1441 -91 1130 -33 
Q 819 25 488 141 
L 488 750 
Q 750 597 1062 519 
Q 1375 441 1716 441 
Q 2309 441 2620 675 
Q 2931 909 2931 1356 
Q 2931 1769 2642 2001 
Q 2353 2234 1838 2234 
L 1294 2234 
L 1294 2753 
L 1863 2753 
Q 2328 2753 2575 2939 
Q 2822 3125 2822 3475 
Q 2822 3834 2567 4026 
Q 2313 4219 1838 4219 
Q 1578 4219 1281 4162 
Q 984 4106 628 3988 
L 628 4550 
Q 988 4650 1302 4700 
Q 1616 4750 1894 4750 
Q 2613 4750 3031 4423 
Q 3450 4097 3450 3541 
Q 3450 3153 3228 2886 
Q 3006 2619 2597 2516 
z
" transform="scale(0.015625)"/>
       </defs>
       <use xlink:href="#DejaVuSans-16"/>
      </g>
     </g>
    </g>
    <g id="xtick_6">
     <g id="line2d_11">
      <path d="M 331.628842 214.32 
L 331.628842 11.88 
" clip-path="url(#pa83a0ec216)" style="fill: none; stroke: #e1e0d9; stroke-width: 0.8; stroke-linecap: square"/>
     </g>
     <g id="line2d_12">
      <g>
       <use xlink:href="#m729a66498f" x="331.628842" y="214.32" style="fill: #898781; stroke: #898781; stroke-width: 0.8"/>
      </g>
     </g>
     <g id="text_6">
      <!-- 4 -->
      <g style="fill: #898781" transform="translate(328.129467 229.677422) scale(0.11 -0.11)">
       <defs>
        <path id="DejaVuSans-17" d="M 2419 4116 
L 825 1625 
L 2419 1625 
L 2419 4116 
z
M 2253 4666 
L 3047 4666 
L 3047 1625 
L 3713 1625 
L 3713 1100 
L 3047 1100 
L 3047 0 
L 2419 0 
L 2419 1100 
L 313 1100 
L 313 1709 
L 2253 4666 
z
" transform="scale(0.015625)"/>
       </defs>
       <use xlink:href="#DejaVuSans-17"/>
      </g>
     </g>
    </g>
    <g id="xtick_7">
     <g id="line2d_13">
      <path d="M 381.260283 214.32 
L 381.260283 11.88 
" clip-path="url(#pa83a0ec216)" style="fill: none; stroke: #e1e0d9; stroke-width: 0.8; stroke-linecap: square"/>
     </g>
     <g id="line2d_14">
      <g>
       <use xlink:href="#m729a66498f" x="381.260283" y="214.32" style="fill: #898781; stroke: #898781; stroke-width: 0.8"/>
      </g>
     </g>
     <g id="text_7">
      <!-- 5 -->
      <g style="fill: #898781" transform="translate(377.760908 229.677422) scale(0.11 -0.11)">
       <defs>
        <path id="DejaVuSans-18" d="M 691 4666 
L 3169 4666 
L 3169 4134 
L 1269 4134 
L 1269 2991 
Q 1406 3038 1543 3061 
Q 1681 3084 1819 3084 
Q 2600 3084 3056 2656 
Q 3513 2228 3513 1497 
Q 3513 744 3044 326 
Q 2575 -91 1722 -91 
Q 1428 -91 1123 -41 
Q 819 9 494 109 
L 494 744 
Q 775 591 1075 516 
Q 1375 441 1709 441 
Q 2250 441 2565 725 
Q 2881 1009 2881 1497 
Q 2881 1984 2565 2268 
Q 2250 2553 1709 2553 
Q 1456 2553 1204 2497 
Q 953 2441 691 2322 
L 691 4666 
z
" transform="scale(0.015625)"/>
       </defs>
       <use xlink:href="#DejaVuSans-18"/>
      </g>
     </g>
    </g>
    <g id="text_8">
     <!-- x -->
     <g style="fill: #0b0b0b" transform="translate(227.144688 244.677422) scale(0.11 -0.11)">
      <defs>
       <path id="DejaVuSans-5b" d="M 3513 3500 
L 2247 1797 
L 3578 0 
L 2900 0 
L 1881 1375 
L 863 0 
L 184 0 
L 1544 1831 
L 300 3500 
L 978 3500 
L 1906 2253 
L 2834 3500 
L 3513 3500 
z
" transform="scale(0.015625)"/>
      </defs>
      <use xlink:href="#DejaVuSans-5b"/>
     </g>
    </g>
   </g>
   <g id="matplotlib.axis_2">
    <g id="ytick_1">
     <g id="line2d_15">
      <path d="M 51.704396 205.118182 
L 409.095604 205.118182 
" clip-path="url(#pa83a0ec216)" style="fill: none; stroke: #e1e0d9; stroke-width: 0.8; stroke-linecap: square"/>
     </g>
     <g id="line2d_16">
      <defs>
       <path id="mf51273304a" d="M 0 0 
L -3.5 0 
" style="stroke: #898781; stroke-width: 0.8"/>
      </defs>
      <g>
       <use xlink:href="#mf51273304a" x="51.704396" y="205.118182" style="fill: #898781; stroke: #898781; stroke-width: 0.8"/>
      </g>
     </g>
     <g id="text_9">
      <!-- 0.0 -->
      <g style="fill: #898781" transform="translate(27.210959 209.296893) scale(0.11 -0.11)">
       <defs>
        <path id="DejaVuSans-11" d="M 684 794 
L 1344 794 
L 1344 0 
L 684 0 
L 684 794 
z
" transform="scale(0.015625)"/>
       </defs>
       <use xlink:href="#DejaVuSans-13"/>
       <use xlink:href="#DejaVuSans-11" transform="translate(63.625 0)"/>
       <use xlink:href="#DejaVuSans-13" transform="translate(95.40625 0)"/>
      </g>
     </g>
    </g>
    <g id="ytick_2">
     <g id="line2d_17">
      <path d="M 51.704396 171.302505 
L 409.095604 171.302505 
" clip-path="url(#pa83a0ec216)" style="fill: none; stroke: #e1e0d9; stroke-width: 0.8; stroke-linecap: square"/>
     </g>
     <g id="line2d_18">
      <g>
       <use xlink:href="#mf51273304a" x="51.704396" y="171.302505" style="fill: #898781; stroke: #898781; stroke-width: 0.8"/>
      </g>
     </g>
     <g id="text_10">
      <!-- 0.1 -->
      <g style="fill: #898781" transform="translate(27.210959 175.481216) scale(0.11 -0.11)">
       <use xlink:href="#DejaVuSans-13"/>
       <use xlink:href="#DejaVuSans-11" transform="translate(63.625 0)"/>
       <use xlink:href="#DejaVuSans-14" transform="translate(95.40625 0)"/>
      </g>
     </g>
    </g>
    <g id="ytick_3">
     <g id="line2d_19">
      <path d="M 51.704396 137.486829 
L 409.095604 137.486829 
" clip-path="url(#pa83a0ec216)" style="fill: none; stroke: #e1e0d9; stroke-width: 0.8; stroke-linecap: square"/>
     </g>
     <g id="line2d_20">
      <g>
       <use xlink:href="#mf51273304a" x="51.704396" y="137.486829" style="fill: #898781; stroke: #898781; stroke-width: 0.8"/>
      </g>
     </g>
     <g id="text_11">
      <!-- 0.2 -->
      <g style="fill: #898781" transform="translate(27.210959 141.66554) scale(0.11 -0.11)">
       <use xlink:href="#DejaVuSans-13"/>
       <use xlink:href="#DejaVuSans-11" transform="translate(63.625 0)"/>
       <use xlink:href="#DejaVuSans-15" transform="translate(95.40625 0)"/>
      </g>
     </g>
    </g>
    <g id="ytick_4">
     <g id="line2d_21">
      <path d="M 51.704396 103.671153 
L 409.095604 103.671153 
" clip-path="url(#pa83a0ec216)" style="fill: none; stroke: #e1e0d9; stroke-width: 0.8; stroke-linecap: square"/>
     </g>
     <g id="line2d_22">
      <g>
       <use xlink:href="#mf51273304a" x="51.704396" y="103.671153" style="fill: #898781; stroke: #898781; stroke-width: 0.8"/>
      </g>
     </g>
     <g id="text_12">
      <!-- 0.3 -->
      <g style="fill: #898781" transform="translate(27.210959 107.849864) scale(0.11 -0.11)">
       <use xlink:href="#DejaVuSans-13"/>
       <use xlink:href="#DejaVuSans-11" transform="translate(63.625 0)"/>
       <use xlink:href="#DejaVuSans-16" transform="translate(95.40625 0)"/>
      </g>
     </g>
    </g>
    <g id="ytick_5">
     <g id="line2d_23">
      <path d="M 51.704396 69.855476 
L 409.095604 69.855476 
" clip-path="url(#pa83a0ec216)" style="fill: none; stroke: #e1e0d9; stroke-width: 0.8; stroke-linecap: square"/>
     </g>
     <g id="line2d_24">
      <g>
       <use xlink:href="#mf51273304a" x="51.704396" y="69.855476" style="fill: #898781; stroke: #898781; stroke-width: 0.8"/>
      </g>
     </g>
     <g id="text_13">
      <!-- 0.4 -->
      <g style="fill: #898781" transform="translate(27.210959 74.034187) scale(0.11 -0.11)">
       <use xlink:href="#DejaVuSans-13"/>
       <use xlink:href="#DejaVuSans-11" transform="translate(63.625 0)"/>
       <use xlink:href="#DejaVuSans-17" transform="translate(95.40625 0)"/>
      </g>
     </g>
    </g>
    <g id="ytick_6">
     <g id="line2d_25">
      <path d="M 51.704396 36.0398 
L 409.095604 36.0398 
" clip-path="url(#pa83a0ec216)" style="fill: none; stroke: #e1e0d9; stroke-width: 0.8; stroke-linecap: square"/>
     </g>
     <g id="line2d_26">
      <g>
       <use xlink:href="#mf51273304a" x="51.704396" y="36.0398" style="fill: #898781; stroke: #898781; stroke-width: 0.8"/>
      </g>
     </g>
     <g id="text_14">
      <!-- 0.5 -->
      <g style="fill: #898781" transform="translate(27.210959 40.218511) scale(0.11 -0.11)">
       <use xlink:href="#DejaVuSans-13"/>
       <use xlink:href="#DejaVuSans-11" transform="translate(63.625 0)"/>
       <use xlink:href="#DejaVuSans-18" transform="translate(95.40625 0)"/>
      </g>
     </g>
    </g>
    <g id="text_15">
     <!-- density -->
     <g style="fill: #2a78d6" transform="translate(20.568381 133.266094) rotate(-90) scale(0.11 -0.11)">
      <defs>
       <path id="DejaVuSans-47" d="M 2906 2969 
L 2906 4863 
L 3481 4863 
L 3481 0 
L 2906 0 
L 2906 525 
Q 2725 213 2448 61 
Q 2172 -91 1784 -91 
Q 1150 -91 751 415 
Q 353 922 353 1747 
Q 353 2572 751 3078 
Q 1150 3584 1784 3584 
Q 2172 3584 2448 3432 
Q 2725 3281 2906 2969 
z
M 947 1747 
Q 947 1113 1208 752 
Q 1469 391 1925 391 
Q 2381 391 2643 752 
Q 2906 1113 2906 1747 
Q 2906 2381 2643 2742 
Q 2381 3103 1925 3103 
Q 1469 3103 1208 2742 
Q 947 2381 947 1747 
z
" transform="scale(0.015625)"/>
       <path id="DejaVuSans-48" d="M 3597 1894 
L 3597 1613 
L 953 1613 
Q 991 1019 1311 708 
Q 1631 397 2203 397 
Q 2534 397 2845 478 
Q 3156 559 3463 722 
L 3463 178 
Q 3153 47 2828 -22 
Q 2503 -91 2169 -91 
Q 1331 -91 842 396 
Q 353 884 353 1716 
Q 353 2575 817 3079 
Q 1281 3584 2069 3584 
Q 2775 3584 3186 3129 
Q 3597 2675 3597 1894 
z
M 3022 2063 
Q 3016 2534 2758 2815 
Q 2500 3097 2075 3097 
Q 1594 3097 1305 2825 
Q 1016 2553 972 2059 
L 3022 2063 
z
" transform="scale(0.015625)"/>
       <path id="DejaVuSans-51" d="M 3513 2113 
L 3513 0 
L 2938 0 
L 2938 2094 
Q 2938 2591 2744 2837 
Q 2550 3084 2163 3084 
Q 1697 3084 1428 2787 
Q 1159 2491 1159 1978 
L 1159 0 
L 581 0 
L 581 3500 
L 1159 3500 
L 1159 2956 
Q 1366 3272 1645 3428 
Q 1925 3584 2291 3584 
Q 2894 3584 3203 3211 
Q 3513 2838 3513 2113 
z
" transform="scale(0.015625)"/>
       <path id="DejaVuSans-56" d="M 2834 3397 
L 2834 2853 
Q 2591 2978 2328 3040 
Q 2066 3103 1784 3103 
Q 1356 3103 1142 2972 
Q 928 2841 928 2578 
Q 928 2378 1081 2264 
Q 1234 2150 1697 2047 
L 1894 2003 
Q 2506 1872 2764 1633 
Q 3022 1394 3022 966 
Q 3022 478 2636 193 
Q 2250 -91 1575 -91 
Q 1294 -91 989 -36 
Q 684 19 347 128 
L 347 722 
Q 666 556 975 473 
Q 1284 391 1588 391 
Q 1994 391 2212 530 
Q 2431 669 2431 922 
Q 2431 1156 2273 1281 
Q 2116 1406 1581 1522 
L 1381 1569 
Q 847 1681 609 1914 
Q 372 2147 372 2553 
Q 372 3047 722 3315 
Q 1072 3584 1716 3584 
Q 2034 3584 2315 3537 
Q 2597 3491 2834 3397 
z
" transform="scale(0.015625)"/>
       <path id="DejaVuSans-4c" d="M 603 3500 
L 1178 3500 
L 1178 0 
L 603 0 
L 603 3500 
z
M 603 4863 
L 1178 4863 
L 1178 4134 
L 603 4134 
L 603 4863 
z
" transform="scale(0.015625)"/>
       <path id="DejaVuSans-57" d="M 1172 4494 
L 1172 3500 
L 2356 3500 
L 2356 3053 
L 1172 3053 
L 1172 1153 
Q 1172 725 1289 603 
Q 1406 481 1766 481 
L 2356 481 
L 2356 0 
L 1766 0 
Q 1100 0 847 248 
Q 594 497 594 1153 
L 594 3053 
L 172 3053 
L 172 3500 
L 594 3500 
L 594 4494 
L 1172 4494 
z
" transform="scale(0.015625)"/>
       <path id="DejaVuSans-5c" d="M 2059 -325 
Q 1816 -950 1584 -1140 
Q 1353 -1331 966 -1331 
L 506 -1331 
L 506 -850 
L 844 -850 
Q 1081 -850 1212 -737 
Q 1344 -625 1503 -206 
L 1606 56 
L 191 3500 
L 800 3500 
L 1894 763 
L 2988 3500 
L 3597 3500 
L 2059 -325 
z
" transform="scale(0.015625)"/>
      </defs>
      <use xlink:href="#DejaVuSans-47"/>
      <use xlink:href="#DejaVuSans-48" transform="translate(63.484375 0)"/>
      <use xlink:href="#DejaVuSans-51" transform="translate(125.015625 0)"/>
      <use xlink:href="#DejaVuSans-56" transform="translate(188.390625 0)"/>
      <use xlink:href="#DejaVuSans-4c" transform="translate(240.484375 0)"/>
      <use xlink:href="#DejaVuSans-57" transform="translate(268.265625 0)"/>
      <use xlink:href="#DejaVuSans-5c" transform="translate(307.46875 0)"/>
     </g>
    </g>
   </g>
   <g id="line2d_27">
    <path d="M 67.949451 176.200774 
L 69.036077 155.778757 
L 70.122703 138.907239 
L 71.209328 124.36862 
L 72.295954 111.607587 
L 73.38258 100.296928 
L 74.469206 90.216393 
L 75.555831 81.205003 
L 76.642457 73.138355 
L 77.729083 65.916405 
L 78.815709 59.456283 
L 79.902334 53.687779 
L 80.98896 48.550345 
L 82.075586 43.99103 
L 83.162212 39.962998 
L 84.248837 36.424438 
L 85.335463 33.337734 
L 86.422089 30.668832 
L 87.508715 28.386734 
L 88.59534 26.463094 
L 89.681966 24.87189 
L 90.768592 23.589157 
L 91.855218 22.592757 
L 92.941843 21.862191 
L 94.028469 21.378435 
L 95.115095 21.123801 
L 96.201721 21.081818 
L 97.288346 21.237124 
L 98.374972 21.575375 
L 99.461598 22.083159 
L 100.548224 22.74793 
L 102.721475 24.502167 
L 104.894727 26.752627 
L 107.067978 29.424091 
L 109.241229 32.45024 
L 112.501107 37.528333 
L 115.760984 43.104774 
L 120.107487 51.075458 
L 126.627241 63.656928 
L 138.580125 86.860957 
L 144.013253 96.943234 
L 149.446382 106.548463 
L 153.792885 113.839063 
L 158.139388 120.755073 
L 162.485891 127.284818 
L 166.832394 133.424737 
L 171.178897 139.177547 
L 175.5254 144.550755 
L 179.871903 149.55545 
L 184.218406 154.20533 
L 188.564909 158.515911 
L 192.911412 162.503903 
L 197.257915 166.186702 
L 201.604418 169.581999 
L 205.950921 172.707465 
L 210.297424 175.580518 
L 214.643927 178.218134 
L 218.99043 180.636718 
L 224.423558 183.375839 
L 229.856687 185.826367 
L 235.289816 188.015509 
L 240.722945 189.968519 
L 246.156073 191.708711 
L 252.675828 193.546039 
L 259.195582 195.141193 
L 265.715337 196.524158 
L 273.321717 197.90486 
L 280.928097 199.070138 
L 289.621103 200.179148 
L 299.400735 201.191203 
L 310.266992 202.079321 
L 322.219875 202.830205 
L 336.34601 203.485764 
L 352.645396 204.015362 
L 373.291285 204.449543 
L 392.850549 204.703328 
L 392.850549 204.703328 
" clip-path="url(#pa83a0ec216)" style="fill: none; stroke: #2a78d6; stroke-width: 2; stroke-linecap: square"/>
   </g>
   <g id="patch_3">
    <path d="M 51.704396 214.32 
L 51.704396 11.88 
" style="fill: none; stroke: #e1e0d9; stroke-width: 0.8; stroke-linejoin: miter; stroke-linecap: square"/>
   </g>
   <g id="patch_4">
    <path d="M 51.704396 214.32 
L 409.095604 214.32 
" style="fill: none; stroke: #e1e0d9; stroke-width: 0.8; stroke-linejoin: miter; stroke-linecap: square"/>
   </g>
  </g>
  <g id="axes_2">
   <g id="matplotlib.axis_3">
    <g id="ytick_7">
     <g id="line2d_28">
      <defs>
       <path id="me38abca12f" d="M 0 0 
L 3.5 0 
" style="stroke: #898781; stroke-width: 0.8"/>
      </defs>
      <g>
       <use xlink:href="#me38abca12f" x="409.095604" y="214.32" style="fill: #898781; stroke: #898781; stroke-width: 0.8"/>
      </g>
     </g>
     <g id="text_16">
      <!-- 0.0 -->
      <g style="fill: #898781" transform="translate(416.095604 218.498711) scale(0.11 -0.11)">
       <use xlink:href="#DejaVuSans-13"/>
       <use xlink:href="#DejaVuSans-11" transform="translate(63.625 0)"/>
       <use xlink:href="#DejaVuSans-13" transform="translate(95.40625 0)"/>
      </g>
     </g>
    </g>
    <g id="ytick_8">
     <g id="line2d_29">
      <g>
       <use xlink:href="#me38abca12f" x="409.095604" y="175.76" style="fill: #898781; stroke: #898781; stroke-width: 0.8"/>
      </g>
     </g>
     <g id="text_17">
      <!-- 0.2 -->
      <g style="fill: #898781" transform="translate(416.095604 179.938711) scale(0.11 -0.11)">
       <use xlink:href="#DejaVuSans-13"/>
       <use xlink:href="#DejaVuSans-11" transform="translate(63.625 0)"/>
       <use xlink:href="#DejaVuSans-15" transform="translate(95.40625 0)"/>
      </g>
     </g>
    </g>
    <g id="ytick_9">
     <g id="line2d_30">
      <g>
       <use xlink:href="#me38abca12f" x="409.095604" y="137.2" style="fill: #898781; stroke: #898781; stroke-width: 0.8"/>
      </g>
     </g>
     <g id="text_18">
      <!-- 0.4 -->
      <g style="fill: #898781" transform="translate(416.095604 141.378711) scale(0.11 -0.11)">
       <use xlink:href="#DejaVuSans-13"/>
       <use xlink:href="#DejaVuSans-11" transform="translate(63.625 0)"/>
       <use xlink:href="#DejaVuSans-17" transform="translate(95.40625 0)"/>
      </g>
     </g>
    </g>
    <g id="ytick_10">
     <g id="line2d_31">
      <g>
       <use xlink:href="#me38abca12f" x="409.095604" y="98.64" style="fill: #898781; stroke: #898781; stroke-width: 0.8"/>
      </g>
     </g>
     <g id="text_19">
      <!-- 0.6 -->
      <g style="fill: #898781" transform="translate(416.095604 102.818711) scale(0.11 -0.11)">
       <defs>
        <path id="DejaVuSans-19" d="M 2113 2584 
Q 1688 2584 1439 2293 
Q 1191 2003 1191 1497 
Q 1191 994 1439 701 
Q 1688 409 2113 409 
Q 2538 409 2786 701 
Q 3034 994 3034 1497 
Q 3034 2003 2786 2293 
Q 2538 2584 2113 2584 
z
M 3366 4563 
L 3366 3988 
Q 3128 4100 2886 4159 
Q 2644 4219 2406 4219 
Q 1781 4219 1451 3797 
Q 1122 3375 1075 2522 
Q 1259 2794 1537 2939 
Q 1816 3084 2150 3084 
Q 2853 3084 3261 2657 
Q 3669 2231 3669 1497 
Q 3669 778 3244 343 
Q 2819 -91 2113 -91 
Q 1303 -91 875 529 
Q 447 1150 447 2328 
Q 447 3434 972 4092 
Q 1497 4750 2381 4750 
Q 2619 4750 2861 4703 
Q 3103 4656 3366 4563 
z
" transform="scale(0.015625)"/>
       </defs>
       <use xlink:href="#DejaVuSans-13"/>
       <use xlink:href="#DejaVuSans-11" transform="translate(63.625 0)"/>
       <use xlink:href="#DejaVuSans-19" transform="translate(95.40625 0)"/>
      </g>
     </g>
    </g>
    <g id="ytick_11">
     <g id="line2d_32">
      <g>
       <use xlink:href="#me38abca12f" x="409.095604" y="60.08" style="fill: #898781; stroke: #898781; stroke-width: 0.8"/>
      </g>
     </g>
     <g id="text_20">
      <!-- 0.8 -->
      <g style="fill: #898781" transform="translate(416.095604 64.258711) scale(0.11 -0.11)">
       <defs>
        <path id="DejaVuSans-1b" d="M 2034 2216 
Q 1584 2216 1326 1975 
Q 1069 1734 1069 1313 
Q 1069 891 1326 650 
Q 1584 409 2034 409 
Q 2484 409 2743 651 
Q 3003 894 3003 1313 
Q 3003 1734 2745 1975 
Q 2488 2216 2034 2216 
z
M 1403 2484 
Q 997 2584 770 2862 
Q 544 3141 544 3541 
Q 544 4100 942 4425 
Q 1341 4750 2034 4750 
Q 2731 4750 3128 4425 
Q 3525 4100 3525 3541 
Q 3525 3141 3298 2862 
Q 3072 2584 2669 2484 
Q 3125 2378 3379 2068 
Q 3634 1759 3634 1313 
Q 3634 634 3220 271 
Q 2806 -91 2034 -91 
Q 1263 -91 848 271 
Q 434 634 434 1313 
Q 434 1759 690 2068 
Q 947 2378 1403 2484 
z
M 1172 3481 
Q 1172 3119 1398 2916 
Q 1625 2713 2034 2713 
Q 2441 2713 2670 2916 
Q 2900 3119 2900 3481 
Q 2900 3844 2670 4047 
Q 2441 4250 2034 4250 
Q 1625 4250 1398 4047 
Q 1172 3844 1172 3481 
z
" transform="scale(0.015625)"/>
       </defs>
       <use xlink:href="#DejaVuSans-13"/>
       <use xlink:href="#DejaVuSans-11" transform="translate(63.625 0)"/>
       <use xlink:href="#DejaVuSans-1b" transform="translate(95.40625 0)"/>
      </g>
     </g>
    </g>
    <g id="ytick_12">
     <g id="line2d_33">
      <g>
       <use xlink:href="#me38abca12f" x="409.095604" y="21.52" style="fill: #898781; stroke: #898781; stroke-width: 0.8"/>
      </g>
     </g>
     <g id="text_21">
      <!-- 1.0 -->
      <g style="fill: #898781" transform="translate(416.095604 25.698711) scale(0.11 -0.11)">
       <use xlink:href="#DejaVuSans-14"/>
       <use xlink:href="#DejaVuSans-11" transform="translate(63.625 0)"/>
       <use xlink:href="#DejaVuSans-13" transform="translate(95.40625 0)"/>
      </g>
     </g>
    </g>
    <g id="text_22">
     <!-- P(X ≤ x) -->
     <g style="fill: #eb6834" transform="translate(445.946463 135.835625) rotate(-90) scale(0.11 -0.11)">
      <defs>
       <path id="DejaVuSans-33" d="M 1259 4147 
L 1259 2394 
L 2053 2394 
Q 2494 2394 2734 2622 
Q 2975 2850 2975 3272 
Q 2975 3691 2734 3919 
Q 2494 4147 2053 4147 
L 1259 4147 
z
M 628 4666 
L 2053 4666 
Q 2838 4666 3239 4311 
Q 3641 3956 3641 3272 
Q 3641 2581 3239 2228 
Q 2838 1875 2053 1875 
L 1259 1875 
L 1259 0 
L 628 0 
L 628 4666 
z
" transform="scale(0.015625)"/>
       <path id="DejaVuSans-b" d="M 1984 4856 
Q 1566 4138 1362 3434 
Q 1159 2731 1159 2009 
Q 1159 1288 1364 580 
Q 1569 -128 1984 -844 
L 1484 -844 
Q 1016 -109 783 600 
Q 550 1309 550 2009 
Q 550 2706 781 3412 
Q 1013 4119 1484 4856 
L 1984 4856 
z
" transform="scale(0.015625)"/>
       <path id="DejaVuSans-3b" d="M 403 4666 
L 1081 4666 
L 2241 2931 
L 3406 4666 
L 4084 4666 
L 2584 2425 
L 4184 0 
L 3506 0 
L 2194 1984 
L 872 0 
L 191 0 
L 1856 2491 
L 403 4666 
z
" transform="scale(0.015625)"/>
       <path id="DejaVuSans-3" transform="scale(0.015625)"/>
       <path id="DejaVuSans-cee" d="M 4684 3175 
L 1684 2309 
L 4684 1453 
L 4684 897 
L 678 2047 
L 678 2578 
L 4684 3725 
L 4684 3175 
z
M 678 531 
L 4684 531 
L 4684 0 
L 678 0 
L 678 531 
z
" transform="scale(0.015625)"/>
       <path id="DejaVuSans-c" d="M 513 4856 
L 1013 4856 
Q 1481 4119 1714 3412 
Q 1947 2706 1947 2009 
Q 1947 1309 1714 600 
Q 1481 -109 1013 -844 
L 513 -844 
Q 928 -128 1133 580 
Q 1338 1288 1338 2009 
Q 1338 2731 1133 3434 
Q 928 4138 513 4856 
z
" transform="scale(0.015625)"/>
      </defs>
      <use xlink:href="#DejaVuSans-33"/>
      <use xlink:href="#DejaVuSans-b" transform="translate(60.296875 0)"/>
      <use xlink:href="#DejaVuSans-3b" transform="translate(99.3125 0)"/>
      <use xlink:href="#DejaVuSans-3" transform="translate(167.8125 0)"/>
      <use xlink:href="#DejaVuSans-cee" transform="translate(199.59375 0)"/>
      <use xlink:href="#DejaVuSans-3" transform="translate(283.390625 0)"/>
      <use xlink:href="#DejaVuSans-5b" transform="translate(315.171875 0)"/>
      <use xlink:href="#DejaVuSans-c" transform="translate(374.359375 0)"/>
     </g>
    </g>
   </g>
   <g id="line2d_34">
    <path d="M 67.949451 214.1272 
L 69.036077 213.633929 
L 70.122703 212.909882 
L 71.209328 211.990567 
L 73.38258 209.66204 
L 75.555831 206.797891 
L 77.729083 203.506448 
L 79.902334 199.872787 
L 83.162212 193.929392 
L 87.508715 185.366107 
L 92.941843 174.093213 
L 105.981352 146.818066 
L 111.414481 135.997121 
L 116.84761 125.710949 
L 121.194113 117.918603 
L 125.540616 110.538698 
L 129.887119 103.581726 
L 134.233622 97.049588 
L 138.580125 90.937628 
L 142.926628 85.236258 
L 147.273131 79.932259 
L 151.619634 75.009818 
L 155.966136 70.451361 
L 160.312639 66.238205 
L 164.659142 62.351079 
L 169.005645 58.770533 
L 173.352148 55.477247 
L 177.698651 52.452276 
L 182.045154 49.677223 
L 186.391657 47.134377 
L 190.73816 44.806798 
L 196.171289 42.17559 
L 201.604418 39.826091 
L 207.037546 37.730908 
L 212.470675 35.864789 
L 217.903804 34.204564 
L 224.423558 32.454397 
L 230.943313 30.937325 
L 238.549693 29.423034 
L 246.156073 28.145273 
L 254.849079 26.929466 
L 263.542085 25.931572 
L 273.321717 25.022657 
L 284.187974 24.226595 
L 297.227483 23.502601 
L 312.440244 22.895607 
L 330.912881 22.399869 
L 353.732022 22.024568 
L 384.157543 21.758962 
L 392.850549 21.7128 
L 392.850549 21.7128 
" clip-path="url(#pa83a0ec216)" style="fill: none; stroke: #eb6834; stroke-width: 1.6; stroke-linecap: square"/>
   </g>
   <g id="patch_5">
    <path d="M 51.704396 214.32 
L 51.704396 11.88 
" style="fill: none; stroke: #e1e0d9; stroke-width: 0.8; stroke-linejoin: miter; stroke-linecap: square"/>
   </g>
   <g id="patch_6">
    <path d="M 409.095604 214.32 
L 409.095604 11.88 
" style="fill: none; stroke: #e1e0d9; stroke-width: 0.8; stroke-linejoin: miter; stroke-linecap: square"/>
   </g>
   <g id="patch_7">
    <path d="M 51.704396 214.32 
L 409.095604 214.32 
" style="fill: none; stroke: #e1e0d9; stroke-width: 0.8; stroke-linejoin: miter; stroke-linecap: square"/>
   </g>
   <g id="patch_8">
    <path d="M 51.704396 11.88 
L 409.095604 11.88 
" style="fill: none; stroke: #e1e0d9; stroke-width: 0.8; stroke-linejoin: miter; stroke-linecap: square"/>
   </g>
  </g>
 </g>
 <defs>
  <clipPath id="pa83a0ec216">
   <rect x="51.704396" y="11.88" width="357.391207" height="202.44"/>
  </clipPath>
 </defs>
</svg>
